<svg xmlns="http://www.w3.org/2000/svg" version="1.0" width="512.000000pt" height="512.000000pt" viewBox="0 0 512.000000 512.000000" preserveAspectRatio="xMidYMid meet">

<g transform="translate(0.000000,512.000000) scale(0.100000,-0.100000)" fill="#1d9628" stroke="none">
<path d="M2310 4999 c-951 -98 -1756 -742 -2059 -1648 -92 -275 -126 -517 -118 -836 11 -472 137 -873 395 -1264 l82 -125 0 -484 0 -483 1118 4 c1097 3 1119 4 1230 25 536 103 954 321 1322 691 615 618 846 1526 605 2376 -270 955 -1115 1654 -2110 1745 -128 12 -344 11 -465 -1z m-968 -2044 c116 -16 186 -29 195 -38 3 -3 -21 -194 -54 -424 l-58 -418 -103 -3 -102 -3 0 77 0 77 -49 -46 c-83 -78 -207 -127 -321 -127 -114 0 -180 39 -221 132 -48 109 -20 423 52 578 31 67 94 141 141 166 86 45 306 57 520 29z m2973 -15 c82 -31 145 -96 169 -174 16 -49 18 -79 13 -185 -16 -377 -160 -531 -497 -531 -172 0 -278 34 -344 111 -63 74 -86 188 -67 331 38 284 130 415 326 465 32 8 101 11 195 9 123 -2 154 -6 205 -26z m-2339 -17 c-3 -16 -24 -158 -46 -316 -38 -268 -40 -290 -25 -313 13 -20 24 -24 63 -24 57 0 108 23 188 83 l61 46 37 268 c21 147 40 271 43 276 2 4 60 7 129 7 92 0 124 -3 124 -12 0 -18 -109 -817 -115 -845 -5 -22 -10 -23 -105 -23 l-99 0 -3 81 -3 82 -55 -47 c-171 -147 -378 -181 -489 -80 -70 63 -71 75 -17 472 26 191 49 353 52 360 2 9 38 12 134 12 l132 0 -6 -27z m944 25 c0 -2 16 -156 35 -342 19 -187 35 -343 35 -348 0 -4 15 -8 34 -8 59 0 99 61 165 253 39 115 83 295 96 395 l7 52 139 0 c115 0 139 -2 139 -15 0 -25 -38 -177 -74 -295 -71 -234 -169 -433 -249 -507 -56 -52 -106 -63 -282 -63 -125 0 -136 2 -159 23 -24 21 -30 47 -91 412 -36 215 -68 402 -71 418 l-6 27 141 0 c78 0 141 -1 141 -2z" fill="#1d9628"/>
<path d="M1005 2765 c-22 -8 -50 -26 -62 -41 -38 -48 -73 -218 -73 -358 0 -70 2 -77 25 -92 56 -36 158 1 255 94 l61 57 24 165 c14 91 25 171 25 178 0 18 -202 16 -255 -3z" fill="#1d9628"/>
<path d="M4028 2771 c-45 -9 -82 -33 -104 -67 -29 -44 -55 -155 -61 -266 -9 -166 8 -188 146 -188 94 0 133 21 167 90 45 89 72 313 45 377 -6 16 -20 34 -30 40 -24 15 -118 23 -163 14z" fill="#1d9628"/>
</g>
</svg>