<svg id="svg" xmlns="http://www.w3.org/2000/svg" xmlns:xlink="http://www.w3.org/1999/xlink" width="400" height="400" viewBox="0, 0, 400,400"><g id="svgg"><path id="path0" d="M174.219 9.867 C 67.465 24.348,-5.676 123.740,12.170 230.078 C 16.743 257.325,29.602 288.362,44.605 308.365 L 47.656 312.433 47.656 350.357 L 47.656 388.281 127.148 388.279 C 176.071 388.277,210.096 387.962,215.625 387.461 C 323.960 377.630,401.837 280.966,387.862 173.673 C 374.306 69.603,278.030 -4.214,174.219 9.867 M110.116 170.321 C 115.464 171.203,119.905 172.001,119.983 172.095 C 120.061 172.189,118.074 186.680,115.566 204.297 C 113.059 221.914,110.991 236.592,110.972 236.914 C 110.953 237.236,107.510 237.501,103.320 237.502 L 95.703 237.504 95.960 231.642 C 96.257 224.868,95.933 224.661,91.760 228.970 C 80.915 240.170,60.604 242.983,52.817 234.364 C 42.398 222.831,48.506 182.797,62.113 173.435 C 70.300 167.802,87.903 166.661,110.116 170.321 M329.683 168.804 C 345.090 171.303,351.219 179.000,351.103 195.703 C 350.886 227.178,336.515 241.756,307.940 239.487 C 288.067 237.909,280.885 230.646,280.868 212.109 C 280.839 178.531,297.659 163.608,329.683 168.804 M153.906 171.396 C 153.906 171.991,152.500 182.007,150.781 193.654 C 149.063 205.300,147.656 216.230,147.656 217.943 C 147.656 226.201,158.778 224.692,171.071 214.765 L 173.587 212.734 176.486 191.935 C 178.080 180.496,179.581 170.940,179.821 170.699 C 180.062 170.459,184.450 170.362,189.574 170.483 L 198.890 170.703 195.184 197.656 C 193.146 212.480,191.074 227.510,190.580 231.055 L 189.682 237.500 181.982 237.500 L 174.282 237.500 174.055 231.300 L 173.828 225.099 169.160 228.952 C 150.220 244.581,127.344 242.515,127.344 225.176 C 127.344 223.090,128.926 210.003,130.859 196.094 C 132.793 182.184,134.375 170.693,134.375 170.558 C 134.375 170.423,138.770 170.313,144.141 170.313 C 151.945 170.313,153.906 170.530,153.906 171.396 M230.342 195.898 C 233.493 227.748,232.975 225.305,236.464 224.739 C 243.253 223.637,251.525 205.062,255.565 181.844 C 256.481 176.576,257.351 171.826,257.497 171.289 C 257.974 169.538,278.846 169.927,278.453 171.680 C 270.778 205.863,259.692 230.571,249.823 235.489 C 243.797 238.492,221.293 238.602,218.963 235.640 C 217.777 234.132,206.842 174.919,207.007 170.898 C 207.020 170.576,211.707 170.313,217.421 170.313 L 227.811 170.313 230.342 195.898 M76.773 183.971 C 71.943 186.071,69.426 193.284,67.774 209.766 C 66.625 221.237,67.319 222.941,73.282 223.284 C 78.761 223.599,84.132 221.120,90.256 215.451 L 94.936 211.118 96.747 198.333 C 97.743 191.300,98.730 184.932,98.941 184.180 C 99.451 182.358,80.885 182.183,76.773 183.971 M312.221 183.578 C 303.476 186.348,296.686 215.768,303.269 222.368 C 308.437 227.550,322.567 225.160,326.267 218.478 C 330.986 209.957,332.511 189.197,328.698 185.378 C 326.339 183.015,317.164 182.012,312.221 183.578 " stroke="none" fill="#000000" fill-rule="evenodd"></path></g></svg>