<svg width="247" height="60" viewBox="0 0 247 60" fill="none" xmlns="http://www.w3.org/2000/svg">
<g clip-path="url(#clip0_832_4491)">
<path d="M87.3303 53.0302H83.4107L84.2187 48.8135H81.9151L79.8694 59.6049H82.173L83.0325 55.0784H86.9349L86.0925 59.6049H88.3789L90.4246 48.8135H88.1211L87.3303 53.0302Z" fill="#70706F"/>
<path d="M90.459 59.6049H92.7626L94.8083 48.8135H92.5047L90.459 59.6049Z" fill="#70706F"/>
<path d="M102.183 50.6892C103.146 50.6892 103.971 50.913 104.47 51.1367L105.157 49.1919C104.745 48.9853 103.713 48.71 102.304 48.71C100.43 48.71 98.7794 49.2779 97.5588 50.2762C96.1836 51.4465 95.3584 53.1849 95.3584 55.1986C95.3584 56.5755 95.8569 57.7631 96.7165 58.5203C97.6104 59.3121 98.831 59.7079 100.309 59.7079C101.667 59.7079 102.957 59.3809 103.799 59.1055L104.865 53.4603H100.945L100.602 55.3019H102.269L101.839 57.5737C101.582 57.677 101.203 57.7631 100.67 57.7631C98.9857 57.7631 97.9027 56.8509 97.9027 55.0437C97.9027 53.5807 98.5215 52.2899 99.4498 51.567C100.172 50.9991 101.117 50.7065 102.2 50.7065L102.183 50.6892Z" fill="#70706F"/>
<path d="M105.587 59.6049H107.891L109.936 48.8135H107.633L105.587 59.6049Z" fill="#70706F"/>
<path d="M118.051 50.7928L118.429 48.8135H112.051L110.005 59.6049H116.606L116.985 57.6256H112.687L113.168 55.0267H117.002L117.38 53.0819H113.546L113.993 50.7928H118.051Z" fill="#70706F"/>
<path d="M125.958 52.7376C125.649 54.3211 125.511 55.5086 125.46 56.6101H125.408C125.15 55.4226 124.858 54.3038 124.428 52.927L123.002 48.8135H120.303L118.257 59.5877H120.389L121.093 55.8184C121.42 54.1145 121.678 52.5827 121.798 51.5501H121.85C122.142 52.8581 122.434 53.8391 122.898 55.2849L124.394 59.5877H126.784L128.812 48.8135H126.68L125.941 52.7376H125.958Z" fill="#70706F"/>
<path d="M128.915 59.6049H135.499L135.877 57.6256H131.58L132.078 55.0267H135.912L136.273 53.0819H132.439L132.886 50.7928H136.943L137.321 48.8135H130.961L128.915 59.6049Z" fill="#70706F"/>
<path d="M148.41 53.3914C148.083 54.3552 147.619 55.3363 146.931 56.128C146.502 55.5428 145.917 54.7511 145.487 54.0626V54.011C147.206 53.2021 148.152 52.2899 148.152 51.0335C148.152 49.5877 147.035 48.6411 145.419 48.6411C143.442 48.6411 142.049 49.9836 142.049 51.7219C142.049 52.3759 142.307 52.9955 142.634 53.5463V53.5979C141.224 54.2348 140.038 55.2674 140.038 56.9197C140.038 58.658 141.362 59.7596 143.356 59.7596C144.645 59.7596 145.556 59.3637 146.227 58.8474C146.433 59.1055 146.588 59.3465 146.811 59.5874H149.527C148.926 58.8818 148.375 58.1761 147.963 57.5737C149.201 56.4206 149.923 55.0265 150.507 53.3914H148.393H148.41ZM145.23 50.1385C145.831 50.1385 146.106 50.5688 146.106 51.0679C146.106 51.8768 145.419 52.462 144.593 52.8406C144.301 52.4448 144.112 52.0145 144.112 51.5154C144.112 50.7409 144.611 50.1385 145.23 50.1385ZM144.009 58.0556C142.943 58.0556 142.376 57.3672 142.376 56.5411C142.376 55.7149 142.943 55.1986 143.424 54.8544C144.043 55.8354 144.783 56.8336 145.333 57.5565C145.006 57.8491 144.593 58.0729 144.009 58.0729V58.0556Z" fill="#70706F"/>
<path d="M158.02 48.8135H155.733L153.688 59.6049H160.117L160.512 57.5912H156.369L158.02 48.8135Z" fill="#70706F"/>
<path d="M163.452 48.8135L161.406 59.6049H163.71L165.755 48.8135H163.452Z" fill="#70706F"/>
<path d="M173.406 52.9097C172.941 53.8908 172.374 55.1472 171.944 56.352H171.876C171.876 55.1472 171.755 53.9252 171.686 52.9097L171.343 48.8135H168.265L165.566 59.5877H167.681L168.747 55.1472C169.022 53.9768 169.331 52.359 169.641 50.9477H169.675C169.744 52.3934 169.813 53.8736 169.916 55.0611L170.294 59.4328H172.082L174.282 55.0267C174.867 53.8391 175.537 52.359 176.139 50.9649H176.19C175.881 52.5139 175.64 54.0113 175.468 55.1644L174.815 59.6049H177.05L178.511 48.8307H175.4L173.388 52.927L173.406 52.9097Z" fill="#70706F"/>
<path d="M186.625 49.4675C185.852 48.8995 184.717 48.7446 183.771 48.7446C182.74 48.7446 181.64 48.8479 180.952 49.0372L178.958 59.6049H181.21L181.949 55.7152C182.19 55.7496 182.499 55.784 182.895 55.784C184.201 55.784 185.456 55.4742 186.333 54.7858C187.175 54.1317 187.794 53.1163 187.794 51.7394C187.794 50.7067 187.347 49.9494 186.625 49.4503V49.4675ZM183.17 53.9252C182.792 53.9252 182.534 53.8908 182.293 53.8391L182.895 50.6551C183.084 50.6034 183.393 50.569 183.823 50.569C184.717 50.569 185.473 50.9132 185.473 51.9459C185.473 53.013 184.562 53.908 183.17 53.908V53.9252Z" fill="#70706F"/>
<path d="M191.868 50.7928H195.926L196.304 48.8135H189.926L187.88 59.6049H194.481L194.842 57.6256H190.545L191.043 55.0267H194.877L195.255 53.0819H191.421L191.868 50.7928Z" fill="#70706F"/>
<path d="M199.003 57.5568L205.14 50.2592L205.415 48.8135H197.937L197.542 50.81H201.925V50.8616L195.685 58.2796L195.444 59.6049H203.438L203.816 57.6084H199.003V57.5568Z" fill="#70706F"/>
<path d="M209.455 48.8135L204.212 59.5877H206.653L207.925 56.7823H211.019L211.243 59.5877H213.65L212.395 48.8135H209.438H209.455ZM208.613 55.0439L209.678 52.7204C209.971 52.1008 210.263 51.2747 210.538 50.6034H210.572C210.624 51.2575 210.693 52.118 210.727 52.7204L210.933 55.0439H208.595H208.613Z" fill="#70706F"/>
<path d="M221.454 29.8809L223.208 24.838H205.828L208.458 17.265H225.889L227.66 12.1533H209.214C206.103 12.1533 202.836 14.2531 201.942 16.8003L194.825 37.23C193.931 39.7945 195.754 41.8771 198.865 41.8771H217.294L219.116 36.7653H201.719L204.074 29.8636H221.471L221.454 29.8809Z" fill="#237776"/>
<path d="M171.979 41.9119L174.781 33.8742H187.33C189.892 33.8742 192.659 31.9982 193.485 29.7091L197.903 17.1277C198.745 14.8386 196.613 12.1537 194.224 12.2053H181.245C178.133 12.2053 174.85 14.3223 173.973 16.8696C172.924 19.9504 165.309 41.9119 165.309 41.9119H171.979ZM180.488 17.2998H189.135C190.218 17.2998 190.751 18.3669 190.321 19.675L187.983 26.4218C187.554 27.7298 186.316 28.7797 185.233 28.7797H176.5L180.488 17.2998Z" fill="#237776"/>
<path d="M116.194 41.8426L118.996 33.805H131.545C134.09 33.805 136.875 31.929 137.7 29.6399L142.118 17.0585C142.96 14.7694 140.811 12.1016 138.439 12.1361H125.46C122.348 12.1361 119.065 14.2531 118.188 16.8003C117.139 19.8811 109.524 41.8426 109.524 41.8426H116.194ZM124.721 17.2306H133.35C134.433 17.2306 134.966 18.2977 134.537 19.6057L132.199 26.3525C131.769 27.6606 130.531 28.7105 129.465 28.7105H120.732L124.721 17.2306Z" fill="#237776"/>
<path d="M231.752 36.7827C230.686 36.7827 229.998 35.9049 230.222 34.8378L238.164 12.1362H231.528L222.795 37.2302C221.901 39.7946 223.723 41.8772 226.835 41.8772H245.247L247 36.7655H231.752V36.7827Z" fill="#237776"/>
<path d="M87.6911 41.8601H100.344C103.455 41.8601 106.721 39.7603 107.615 37.2131L114.732 16.7662C115.626 14.2017 113.804 12.1191 110.71 12.1191H98.0572C94.9457 12.1191 91.6794 14.2189 90.7855 16.7662L83.6684 37.2131C82.7745 39.7775 84.5967 41.8601 87.7083 41.8601H87.6911ZM91.3012 34.3904L96.3897 19.606C96.8539 18.298 98.3323 17.2309 99.6732 17.2309H105.432C106.773 17.2309 107.512 18.298 107.048 19.606L101.96 34.3904C101.495 35.6985 100.017 36.7656 98.6761 36.7656H92.9171C91.559 36.7656 90.837 35.6985 91.3012 34.3904Z" fill="#237776"/>
<path d="M57.7445 25.5093L31.3736 11.3789C39.4533 21.327 51.4526 49.9492 29.0012 52.2211C48.513 54.3725 60.1169 38.607 57.7445 25.5093Z" fill="#237776"/>
<path d="M166.013 12.2222H152.828C149.716 12.2222 146.88 14.3219 145.986 16.8692L137.253 41.8771H143.974L146.742 33.7878H157.521L154.702 41.8771H161.337L170.053 16.8692C170.947 14.3047 169.142 12.2222 166.03 12.2222H166.013ZM162.455 19.5197L159.257 28.6589H148.53L151.676 19.5197C152.14 18.2117 153.481 17.2306 154.822 17.2306H160.684C162.042 17.2306 162.902 18.2117 162.437 19.5197H162.455Z" fill="#237776"/>
<path d="M69.9673 36.7137C68.6951 36.6449 68.0075 35.6122 68.4545 34.3386L73.5774 19.4681C74.0415 18.16 75.52 17.0929 76.8781 17.0929H87.7256L89.5134 11.9468H75.2277C72.099 11.9468 68.8155 14.0465 67.9215 16.6282L60.7701 37.1784C59.8762 39.7601 61.6984 41.8598 64.8272 41.8598H79.0613L80.8492 36.7137H69.9673Z" fill="#237776"/>
<path d="M56.7818 21.1377C53.1029 8.96939 42.0663 1.05223 30.0154 0.776855H28.7433C26.199 0.828489 23.6376 1.24156 21.0933 1.99885C5.93084 6.59424 -3.11162 22.3253 0.979838 37.626C6.54972 58.486 38.6625 56.5756 33.1614 23.9259C35.3618 57.1608 7.9078 50.3623 11.8273 36.5245C15.2312 27.3337 26.4397 21.9294 31.3735 11.379L57.7445 25.5094C57.5382 24.0464 57.2287 22.6007 56.7818 21.1377Z" fill="#8FB435"/>
</g>
<defs>
<clipPath id="clip0_832_4491">
<rect width="247" height="59" fill="white" transform="translate(0 0.776855)"/>
</clipPath>
</defs>
</svg>
