<svg width="196" height="48" viewBox="0 0 196 48" fill="none" xmlns="http://www.w3.org/2000/svg">
<g clip-path="url(#clip0_832_4747)">
<path d="M69.2983 41.7411H66.1881L66.8292 38.395H65.0013L63.3779 46.9583H65.2059L65.888 43.3663H68.9846L68.3161 46.9583H70.1304L71.7538 38.395H69.9258L69.2983 41.7411Z" fill="black" fill-opacity="0.3"/>
<path d="M71.7812 46.9583H73.6092L75.2325 38.395H73.4046L71.7812 46.9583Z" fill="black" fill-opacity="0.3"/>
<path d="M81.0846 39.8836C81.8485 39.8836 82.5033 40.0611 82.8989 40.2387L83.4446 38.6954C83.1172 38.5315 82.2987 38.313 81.1801 38.313C79.6932 38.313 78.3836 38.7637 77.415 39.5558C76.3237 40.4845 75.6689 41.8639 75.6689 43.4619C75.6689 44.5545 76.0645 45.4968 76.7466 46.0977C77.456 46.726 78.4245 47.0401 79.5977 47.0401C80.6753 47.0401 81.6985 46.7806 82.3669 46.5621L83.2127 42.0825H80.1024L79.8296 43.5438H81.1528L80.8118 45.3466C80.6071 45.4285 80.307 45.4968 79.8841 45.4968C78.5473 45.4968 77.6879 44.773 77.6879 43.3389C77.6879 42.1781 78.179 41.1537 78.9156 40.5801C79.4885 40.1294 80.2388 39.8973 81.0982 39.8973L81.0846 39.8836Z" fill="black" fill-opacity="0.3"/>
<path d="M83.7856 46.9583H85.6136L87.2369 38.395H85.409L83.7856 46.9583Z" fill="black" fill-opacity="0.3"/>
<path d="M93.6757 39.9656L93.9758 38.395H88.9148L87.2915 46.9583H92.5298L92.8299 45.3876H89.4196L89.8015 43.3254H92.8436L93.1437 41.7821H90.1016L90.4563 39.9656H93.6757Z" fill="black" fill-opacity="0.3"/>
<path d="M99.9507 41.5089C99.7052 42.7654 99.596 43.7078 99.5551 44.5819H99.5142C99.3096 43.6395 99.0777 42.7518 98.7366 41.6592L97.6044 38.395H95.4627L93.8394 46.9446H95.5309L96.0902 43.9536C96.3494 42.6015 96.554 41.386 96.6495 40.5666H96.6904C96.9223 41.6045 97.1542 42.383 97.5225 43.5302L98.7093 46.9446H100.606L102.215 38.395H100.524L99.9371 41.5089H99.9507Z" fill="black" fill-opacity="0.3"/>
<path d="M102.297 46.9583H107.522L107.822 45.3876H104.412L104.807 43.3254H107.849L108.136 41.7821H105.094L105.448 39.9656H108.668L108.968 38.395H103.92L102.297 46.9583Z" fill="black" fill-opacity="0.3"/>
<path d="M117.766 42.0278C117.507 42.7926 117.139 43.5711 116.593 44.1993C116.252 43.7349 115.788 43.1067 115.447 42.5604V42.5194C116.812 41.8775 117.562 41.1537 117.562 40.1567C117.562 39.0095 116.675 38.2583 115.393 38.2583C113.824 38.2583 112.719 39.3236 112.719 40.703C112.719 41.222 112.924 41.7136 113.183 42.1507V42.1917C112.064 42.697 111.123 43.5164 111.123 44.8275C111.123 46.2069 112.173 47.081 113.756 47.081C114.779 47.081 115.502 46.7669 116.034 46.3572C116.198 46.562 116.32 46.7532 116.498 46.9445H118.653C118.176 46.3845 117.739 45.8245 117.412 45.3465C118.394 44.4315 118.967 43.3252 119.431 42.0278H117.753H117.766ZM115.243 39.4465C115.72 39.4465 115.938 39.7879 115.938 40.184C115.938 40.8259 115.393 41.2903 114.738 41.5907C114.506 41.2766 114.356 40.9352 114.356 40.5391C114.356 39.9245 114.752 39.4465 115.243 39.4465ZM114.274 45.7289C113.428 45.7289 112.978 45.1826 112.978 44.5271C112.978 43.8715 113.428 43.4618 113.81 43.1886C114.302 43.9671 114.888 44.7593 115.325 45.3329C115.065 45.5651 114.738 45.7426 114.274 45.7426V45.7289Z" fill="black" fill-opacity="0.3"/>
<path d="M125.392 38.395H123.578L121.954 46.9583H127.056L127.37 45.3603H124.082L125.392 38.395Z" fill="black" fill-opacity="0.3"/>
<path d="M129.703 38.395L128.079 46.9583H129.907L131.531 38.395H129.703Z" fill="black" fill-opacity="0.3"/>
<path d="M137.601 41.6455C137.233 42.424 136.783 43.421 136.442 44.377H136.387C136.387 43.421 136.292 42.4513 136.237 41.6455L135.964 38.395H133.522L131.381 46.9446H133.059L133.904 43.421C134.123 42.4923 134.368 41.2085 134.614 40.0885H134.641C134.695 41.2358 134.75 42.4103 134.832 43.3527L135.132 46.8217H136.551L138.297 43.3254C138.761 42.383 139.293 41.2085 139.77 40.1022H139.811C139.565 41.3314 139.374 42.5196 139.238 43.4346L138.72 46.9583H140.493L141.653 38.4087H139.184L137.587 41.6592L137.601 41.6455Z" fill="black" fill-opacity="0.3"/>
<path d="M148.091 38.9139C147.478 38.4632 146.577 38.3403 145.827 38.3403C145.008 38.3403 144.135 38.4223 143.59 38.5725L142.007 46.9582H143.794L144.381 43.8716C144.572 43.8989 144.817 43.9262 145.131 43.9262C146.168 43.9262 147.164 43.6804 147.859 43.1341C148.528 42.6151 149.019 41.8093 149.019 40.7167C149.019 39.8973 148.664 39.2964 148.091 38.9003V38.9139ZM145.349 42.4512C145.049 42.4512 144.845 42.4239 144.654 42.3829L145.131 39.8563C145.281 39.8153 145.527 39.788 145.868 39.788C146.577 39.788 147.177 40.0612 147.177 40.8806C147.177 41.7274 146.454 42.4376 145.349 42.4376V42.4512Z" fill="black" fill-opacity="0.3"/>
<path d="M152.252 39.9656H155.471L155.771 38.395H150.71L149.087 46.9583H154.325L154.612 45.3876H151.202L151.597 43.3254H154.639L154.939 41.7821H151.897L152.252 39.9656Z" fill="black" fill-opacity="0.3"/>
<path d="M157.913 45.333L162.783 39.5422L163.001 38.395H157.067L156.754 39.9793H160.232V40.0203L155.28 45.9066L155.089 46.9583H161.433L161.733 45.374H157.913V45.333Z" fill="black" fill-opacity="0.3"/>
<path d="M166.207 38.395L162.046 46.9446H163.983L164.993 44.7184H167.448L167.626 46.9446H169.536L168.54 38.395H166.193H166.207ZM165.539 43.339L166.384 41.4953C166.616 41.0036 166.848 40.348 167.066 39.8154H167.094C167.135 40.3344 167.189 41.0173 167.216 41.4953L167.38 43.339H165.525H165.539Z" fill="black" fill-opacity="0.3"/>
<path d="M175.729 23.3714L177.12 19.3698H163.329L165.416 13.3605H179.248L180.653 9.3042H166.016C163.547 9.3042 160.955 10.9704 160.246 12.9917L154.598 29.2031C153.889 31.2381 155.335 32.8907 157.804 32.8907H172.428L173.874 28.8344H160.068L161.937 23.3577H175.742L175.729 23.3714Z" fill="black" fill-opacity="0.3"/>
<path d="M136.469 32.9181L138.692 26.5401H148.651C150.683 26.5401 152.88 25.0514 153.534 23.235L157.04 13.2513C157.709 11.4349 156.017 9.30434 154.121 9.34531H143.822C141.353 9.34531 138.747 11.0252 138.051 13.0465C137.219 15.4912 131.176 32.9181 131.176 32.9181H136.469ZM143.221 13.3879H150.083C150.942 13.3879 151.365 14.2347 151.024 15.2727L149.169 20.6264C148.828 21.6643 147.846 22.4975 146.986 22.4975H140.057L143.221 13.3879Z" fill="black" fill-opacity="0.3"/>
<path d="M92.2023 32.8636L94.4259 26.4855H104.384C106.403 26.4855 108.613 24.9969 109.268 23.1804L112.774 13.1968C113.442 11.3804 111.737 9.26347 109.854 9.29079H99.555C97.0859 9.29079 94.4804 10.9707 93.7847 12.992C92.9526 15.4367 86.9094 32.8636 86.9094 32.8636H92.2023ZM98.9684 13.3334H105.816C106.676 13.3334 107.099 14.1802 106.758 15.2181L104.902 20.5719C104.561 21.6098 103.579 22.4429 102.733 22.4429H95.8036L98.9684 13.3334Z" fill="black" fill-opacity="0.3"/>
<path d="M183.9 28.8485C183.054 28.8485 182.509 28.152 182.686 27.3052L188.988 9.29102H183.723L176.793 29.2036C176.083 31.2386 177.529 32.8911 179.999 32.8911H194.609L196 28.8349H183.9V28.8485Z" fill="black" fill-opacity="0.3"/>
<path d="M69.585 32.8775H79.6251C82.0942 32.8775 84.6861 31.2112 85.3954 29.1899L91.043 12.9649C91.7523 10.9299 90.3063 9.27734 87.8509 9.27734H77.8108C75.3417 9.27734 72.7498 10.9436 72.0405 12.9649L66.3929 29.1899C65.6835 31.2249 67.1295 32.8775 69.5986 32.8775H69.585ZM72.4497 26.9501L76.4876 15.2183C76.8559 14.1804 78.029 13.3336 79.0931 13.3336H83.6629C84.727 13.3336 85.3136 14.1804 84.9452 15.2183L80.9074 26.9501C80.5391 27.9881 79.3659 28.8348 78.3019 28.8348H73.732C72.6543 28.8348 72.0814 27.9881 72.4497 26.9501Z" fill="black" fill-opacity="0.3"/>
<path d="M45.8216 19.9027L24.8957 8.68994C31.3072 16.584 40.8289 39.2963 23.0132 41.0991C38.4962 42.8063 47.7042 30.2961 45.8216 19.9027Z" fill="black" fill-opacity="0.3"/>
<path d="M131.735 9.35889H121.272C118.803 9.35889 116.552 11.0251 115.843 13.0464L108.913 32.8907H114.247L116.443 26.4717H124.996L122.759 32.8907H128.025L134.941 13.0464C135.65 11.0114 134.218 9.35889 131.749 9.35889H131.735ZM128.911 15.1497L126.374 22.4018H117.862L120.358 15.1497C120.727 14.1117 121.791 13.3332 122.855 13.3332H127.506C128.584 13.3332 129.266 14.1117 128.898 15.1497H128.911Z" fill="black" fill-opacity="0.3"/>
<path d="M55.5206 28.7937C54.5111 28.7391 53.9655 27.9196 54.3201 26.909L58.3853 15.1089C58.7536 14.071 59.9268 13.2242 61.0044 13.2242H69.6122L71.0309 9.14062H59.6949C57.2121 9.14062 54.6066 10.8068 53.8973 12.8555L48.2224 29.1625C47.5131 31.2111 48.9591 32.8773 51.4418 32.8773H62.7369L64.1556 28.7937H55.5206Z" fill="black" fill-opacity="0.3"/>
<path d="M45.0574 16.4336C42.1382 6.77781 33.3804 0.495375 23.8177 0.276855H22.8083C20.7893 0.317828 18.7567 0.645607 16.7378 1.24654C4.70608 4.89308 -2.46931 17.376 0.777348 29.5175C5.19717 46.0704 30.6794 44.5544 26.3141 18.6462C28.0602 45.0187 6.27484 39.624 9.38509 28.6434C12.0861 21.3503 20.9803 17.0619 24.8954 8.68986L45.8213 19.9026C45.6576 18.7418 45.4121 17.5945 45.0574 16.4336Z" fill="black" fill-opacity="0.3"/>
</g>
<defs>
<clipPath id="clip0_832_4747">
<rect width="196" height="46.8178" fill="white" transform="translate(0 0.276855)"/>
</clipPath>
</defs>
</svg>
