<svg id="svg" version="1.1" xmlns="http://www.w3.org/2000/svg" xmlns:xlink="http://www.w3.org/1999/xlink" width="400" height="400" viewBox="0, 0, 400,400"><g id="svgg"><path id="path0" d="M187.654 13.678 C 178.533 16.220,53.145 89.200,46.054 96.094 C 40.081 101.902,35.869 109.404,33.880 117.779 C 32.034 125.553,32.819 275.176,34.744 282.350 C 38.843 297.631,44.880 303.721,71.016 318.945 L 90.798 330.469 132.934 330.469 L 175.071 330.469 176.989 332.386 C 178.043 333.441,178.906 334.854,178.906 335.525 C 178.906 336.624,185.068 336.726,240.430 336.537 L 301.953 336.328 323.438 323.896 C 357.070 304.435,361.363 300.502,366.152 284.766 C 368.346 277.554,367.801 126.203,365.548 117.325 C 362.844 106.664,355.618 96.932,345.840 90.781 C 330.345 81.035,217.891 15.975,214.201 14.622 C 208.387 12.491,193.778 11.972,187.654 13.678 M277.230 128.938 C 315.427 133.728,343.155 166.338,341.176 204.144 C 338.430 256.608,285.435 286.960,238.093 263.183 C 226.990 257.607,207.031 242.825,207.031 240.179 C 207.031 239.694,229.795 211.719,230.190 211.719 C 230.350 211.719,232.906 213.740,235.870 216.211 C 260.937 237.110,283.991 238.392,296.075 219.560 C 310.969 196.350,294.753 167.397,267.712 168.920 C 254.046 169.690,246.679 175.613,224.023 204.043 C 177.865 261.964,164.905 271.541,132.813 271.446 C 54.871 271.217,30.223 171.282,99.422 136.068 C 124.179 123.469,158.056 129.144,179.460 149.475 L 185.156 154.886 185.156 168.734 L 185.156 182.581 178.711 183.083 C 175.166 183.359,168.617 183.586,164.157 183.589 L 156.049 183.594 150.745 178.590 C 129.152 158.220,100.539 167.527,96.935 196.094 C 94.110 218.478,109.251 234.538,132.147 233.443 C 149.649 232.606,162.219 221.297,199.676 172.686 C 223.502 141.766,238.061 131.297,260.547 128.916 C 268.721 128.051,270.166 128.053,277.230 128.938 M91.647 334.382 C 88.708 335.566,87.751 338.167,83.662 356.086 C 79.030 376.380,79.396 373.816,80.915 375.335 C 82.404 376.824,162.135 377.231,164.877 375.763 C 167.216 374.512,167.656 373.186,171.869 354.715 C 175.985 336.666,176.104 334.853,173.216 334.079 C 170.443 333.336,93.536 333.622,91.647 334.382 M151.407 338.784 C 152.946 339.196,153.134 339.616,152.716 341.703 C 151.817 346.187,151.498 346.775,149.829 347.021 C 147.618 347.347,147.043 349.219,149.154 349.219 C 150.049 349.219,150.809 349.658,150.843 350.195 C 150.892 350.977,150.983 350.977,151.299 350.195 C 151.515 349.658,152.153 349.219,152.716 349.219 C 153.852 349.219,154.688 347.536,154.688 345.249 C 154.688 343.925,155.281 343.750,159.766 343.750 C 162.559 343.750,164.844 343.840,164.844 343.950 C 164.844 344.061,164.517 345.291,164.117 346.685 C 163.467 348.951,163.558 349.219,164.982 349.219 C 166.040 349.219,166.430 349.593,166.145 350.335 C 165.909 350.949,165.481 352.707,165.193 354.241 C 164.822 356.222,164.259 357.031,163.253 357.031 C 162.116 357.031,161.550 358.305,160.389 363.477 L 158.941 369.922 154.015 370.156 C 149.575 370.367,149.132 370.252,149.525 368.984 C 151.284 363.315,152.099 357.031,151.076 357.031 C 150.484 357.031,149.995 356.592,149.988 356.055 C 149.979 355.355,149.813 355.329,149.402 355.964 C 149.086 356.452,148.153 356.979,147.327 357.136 C 146.197 357.351,145.571 358.579,144.793 362.109 C 144.224 364.688,143.575 367.588,143.349 368.555 C 142.980 370.137,142.470 370.313,138.251 370.313 C 133.795 370.313,133.583 370.226,133.957 368.555 C 136.441 357.437,136.497 357.031,135.545 357.031 C 135.009 357.031,134.393 358.433,134.158 360.185 C 132.687 371.146,116.542 375.314,113.158 365.607 L 112.346 363.278 110.650 365.819 C 106.382 372.210,96.789 372.700,89.573 366.894 C 88.197 365.786,89.518 362.744,93.494 357.869 C 93.644 357.686,94.777 358.504,96.013 359.688 C 97.625 361.233,98.890 361.767,100.497 361.581 L 102.734 361.322 99.219 359.049 C 86.570 350.868,97.751 334.834,111.472 341.476 C 115.469 343.411,115.412 345.308,111.197 350.711 C 111.059 350.888,109.721 350.372,108.222 349.565 C 106.242 348.499,105.262 348.332,104.638 348.955 C 104.015 349.579,104.706 350.321,107.164 351.669 C 109.073 352.716,111.085 354.599,111.782 355.991 L 113.017 358.458 113.972 355.815 C 116.691 348.295,129.065 346.030,132.683 352.390 C 134.184 355.028,135.156 355.342,135.156 353.189 C 135.156 350.962,135.982 349.219,137.038 349.219 C 137.551 349.219,138.706 347.479,139.605 345.352 C 141.961 339.774,146.231 337.398,151.407 338.784 M177.379 347.070 C 176.463 351.045,174.807 358.340,173.701 363.281 C 171.175 374.566,169.646 377.700,166.028 379.008 C 162.716 380.206,162.347 382.496,165.285 383.613 C 168.723 384.920,304.931 384.621,308.094 383.299 C 311.396 381.919,311.757 380.960,316.011 362.248 C 319.979 344.793,320.253 341.848,318.020 340.652 C 317.011 340.113,293.662 339.844,247.778 339.844 L 179.046 339.844 177.379 347.070 M203.906 346.920 C 203.906 347.374,203.513 349.308,203.032 351.217 L 202.158 354.688 197.610 354.688 C 195.108 354.688,192.844 355.039,192.578 355.469 C 192.278 355.954,193.742 356.250,196.438 356.250 C 201.126 356.250,201.094 356.209,200.280 361.133 L 199.796 364.063 195.294 364.063 C 192.013 364.063,190.670 364.380,190.342 365.234 C 189.971 366.202,190.775 366.406,194.946 366.406 C 200.462 366.406,200.426 366.364,199.252 371.426 L 198.540 374.492 203.709 369.324 L 208.877 364.156 206.001 359.824 C 202.165 354.047,202.226 353.906,208.569 353.906 C 213.600 353.906,214.091 354.056,215.049 355.885 L 216.086 357.863 217.945 355.885 C 219.952 353.748,239.844 352.685,239.844 354.715 C 239.844 355.272,240.313 355.272,241.355 354.715 C 245.627 352.428,252.344 355.346,252.344 359.489 C 252.344 361.505,252.910 361.312,255.287 358.488 C 260.436 352.369,271.635 352.474,274.376 358.667 C 275.735 361.736,276.326 361.526,276.964 357.746 L 277.504 354.555 282.697 354.737 C 285.554 354.838,288.519 354.649,289.288 354.318 C 290.056 353.987,292.067 353.937,293.756 354.207 C 296.715 354.680,296.852 354.605,297.484 352.154 C 298.134 349.634,298.191 349.607,303.367 349.378 C 306.242 349.251,308.594 349.254,308.594 349.384 C 308.594 349.513,308.267 350.760,307.867 352.154 C 307.220 354.408,307.312 354.688,308.701 354.688 C 309.813 354.688,310.151 355.080,309.877 356.055 C 309.665 356.807,309.262 358.564,308.981 359.961 C 308.622 361.745,308.032 362.500,306.999 362.500 C 305.520 362.500,305.125 363.478,303.367 371.484 L 302.681 374.609 297.434 374.840 C 294.549 374.967,292.200 374.967,292.214 374.840 C 292.229 374.713,292.887 371.885,293.676 368.555 L 295.112 362.500 291.041 362.500 C 286.388 362.500,286.052 362.903,284.345 370.534 L 283.345 375.000 278.289 375.000 L 273.233 375.000 273.707 372.082 L 274.180 369.163 272.442 371.285 C 267.306 377.554,256.198 376.983,253.205 370.297 L 251.921 367.428 250.035 370.412 C 246.855 375.444,241.677 377.057,237.996 374.162 C 236.075 372.651,235.937 372.638,235.933 373.967 C 235.931 374.750,235.563 376.709,235.115 378.320 L 234.302 381.250 229.260 381.250 C 226.487 381.250,224.219 380.984,224.219 380.659 C 224.219 380.334,224.546 378.928,224.945 377.534 L 225.672 375.000 220.674 375.000 C 216.118 375.000,215.583 374.825,214.638 373.021 L 213.602 371.043 211.743 373.021 L 209.884 375.000 193.614 375.000 C 180.461 375.000,177.344 374.798,177.344 373.943 C 177.344 372.970,182.376 350.578,183.296 347.461 C 183.772 345.847,203.906 345.318,203.906 346.920 M225.416 360.131 C 220.347 365.253,220.330 365.445,224.477 370.597 L 226.172 372.702 228.199 364.085 C 229.314 359.346,230.182 355.469,230.128 355.469 C 230.074 355.469,227.953 357.567,225.416 360.131 M122.871 357.680 C 121.333 358.631,121.280 362.003,122.799 362.320 C 124.693 362.715,126.277 359.536,124.881 358.140 C 124.302 357.561,123.397 357.354,122.871 357.680 M263.672 360.938 C 263.406 361.367,263.913 361.719,264.798 361.719 C 265.682 361.719,266.406 361.367,266.406 360.938 C 266.406 360.508,265.900 360.156,265.280 360.156 C 264.661 360.156,263.937 360.508,263.672 360.938 M238.802 363.021 C 238.041 363.782,238.166 366.243,238.992 366.753 C 240.353 367.595,242.188 366.226,242.188 364.370 C 242.188 362.557,240.098 361.725,238.802 363.021 M261.928 367.383 C 262.115 367.920,263.111 368.247,264.142 368.111 C 267.347 367.686,269.834 367.656,272.197 368.014 C 273.590 368.225,274.601 367.980,274.802 367.383 C 275.048 366.651,273.430 366.406,268.359 366.406 C 263.282 366.406,261.673 366.651,261.928 367.383 " stroke="none" fill="#000000" fill-rule="evenodd"></path></g></svg>