<svg id="SvgjsSvg1001" width="288" height="288" xmlns="http://www.w3.org/2000/svg" version="1.1" xmlns:xlink="http://www.w3.org/1999/xlink" xmlns:svgjs="http://svgjs.com/svgjs"><defs id="SvgjsDefs1002"></defs><g id="SvgjsG1008"><svg xmlns="http://www.w3.org/2000/svg" fill="none" viewBox="0 0 923 288" width="288" height="288"><path fill="#1d9628" d="m147.979 282.556 95.985-54.57c10.533-5.991 16.996-17.073 16.95-29.099l-.366-109.872c-.045-12.011-6.569-23.139-17.117-29.19L146.988 4.57c-10.548-6.051-23.52-6.097-34.053-.106L16.95 59.033C6.418 65.022-.045 76.12 0 88.13l.366 109.872c.046 12.011 6.57 23.139 17.118 29.19l96.442 55.256c10.548 6.051 23.52 6.097 34.053.107Zm-63.655-91.275c-28 0-51.17-22.972-51.17-50.988 0-23.855 13.886-42.94 33.123-48.625 11.92-3.522 29.54-1.921 43.214 8.703l15.807-16.02-3.293 26.965-1.433 20.547-41.537 7.668L92.342 123.8c-8.78-8.231-22.666-4.908-27.925 5.411-6.189 12.134-1.128 31.873 19.907 31.873 10.213 0 22.956-11.463 35.105-27.239 14.969-19.404 30.273-43.991 57.756-43.991 28.001 0 51.14 22.026 51.14 50.027 0 26.767-17.469 46.552-38.489 51.674-23.017 5.609-45.942-4.908-60.941-21.584l19.999-25.197c15.044 17.956 27.391 19.694 36.141 16.097 17.453-7.149 18.398-41.415-8.46-41.415-28.703 1.554-45.973 71.779-92.25 71.779v.046ZM348.942 119.449c0-1.577-.234-2.983-.703-4.219-.469-1.279-1.321-2.451-2.557-3.517-1.236-1.065-2.984-2.131-5.243-3.196-2.259-1.109-5.221-2.238-8.887-3.389a119.972 119.972 0 0 1-11.955-4.603c-3.751-1.748-7.097-3.772-10.038-6.074s-5.264-4.987-6.969-8.056c-1.662-3.069-2.493-6.649-2.493-10.74 0-3.965.873-7.545 2.621-10.742 1.748-3.196 4.198-5.924 7.352-8.183 3.155-2.302 6.863-4.05 11.125-5.243 4.262-1.236 8.951-1.854 14.065-1.854 6.82 0 12.809 1.215 17.966 3.644 5.2 2.387 9.249 5.755 12.147 10.102 2.899 4.305 4.348 9.313 4.348 15.024h-20.715c0-2.514-.532-4.73-1.598-6.649-1.023-1.96-2.6-3.495-4.731-4.603-2.089-1.108-4.71-1.662-7.864-1.662-3.069 0-5.648.469-7.736 1.406-2.046.895-3.602 2.132-4.667 3.709a9.326 9.326 0 0 0-1.535 5.178c0 1.492.384 2.856 1.151 4.092.81 1.194 1.961 2.323 3.453 3.389 1.534 1.022 3.409 2.003 5.626 2.94 2.216.938 4.752 1.833 7.608 2.686 4.987 1.577 9.398 3.324 13.234 5.242 3.879 1.918 7.14 4.092 9.782 6.522 2.643 2.429 4.625 5.178 5.946 8.247 1.364 3.069 2.046 6.543 2.046 10.421 0 4.135-.81 7.8-2.429 10.997-1.578 3.197-3.879 5.925-6.905 8.184-2.984 2.216-6.564 3.9-10.741 5.05-4.177 1.151-8.845 1.727-14.002 1.727-4.688 0-9.313-.597-13.874-1.79-4.56-1.237-8.695-3.112-12.403-5.627-3.665-2.514-6.606-5.711-8.823-9.59-2.174-3.921-3.26-8.567-3.26-13.937h20.842c0 2.813.405 5.2 1.215 7.16.81 1.918 1.961 3.474 3.452 4.667 1.535 1.194 3.389 2.046 5.563 2.558 2.173.511 4.603.767 7.288.767 3.112 0 5.626-.426 7.544-1.279 1.961-.895 3.41-2.11 4.348-3.644.938-1.534 1.406-3.239 1.406-5.115Zm29.154-9.334v-1.343c0-5.072.725-9.739 2.174-14.001 1.449-4.305 3.58-8.035 6.394-11.189 2.813-3.154 6.265-5.605 10.357-7.352 4.092-1.79 8.78-2.686 14.065-2.686 5.371 0 10.102.896 14.194 2.686 4.134 1.747 7.608 4.198 10.421 7.352 2.813 3.154 4.944 6.884 6.394 11.189 1.449 4.262 2.173 8.929 2.173 14.001v1.343c0 5.029-.724 9.697-2.173 14.001-1.45 4.263-3.581 7.992-6.394 11.189-2.813 3.154-6.265 5.605-10.357 7.352-4.092 1.748-8.802 2.622-14.13 2.622-5.285 0-9.995-.874-14.129-2.622-4.135-1.747-7.608-4.198-10.421-7.352-2.814-3.197-4.945-6.926-6.394-11.189-1.449-4.304-2.174-8.972-2.174-14.001Zm20.012-1.343v1.343c0 2.728.213 5.285.639 7.672.469 2.387 1.215 4.475 2.238 6.266 1.023 1.79 2.365 3.196 4.028 4.219 1.705.981 3.772 1.471 6.201 1.471 2.43 0 4.476-.49 6.138-1.471 1.662-1.023 3.005-2.429 4.028-4.219 1.023-1.791 1.747-3.879 2.174-6.266.468-2.387.703-4.944.703-7.672v-1.343c0-2.685-.235-5.2-.703-7.544-.427-2.387-1.151-4.497-2.174-6.33-1.023-1.832-2.387-3.26-4.092-4.283-1.662-1.023-3.729-1.534-6.202-1.534-2.386 0-4.411.511-6.073 1.534-1.663 1.023-3.005 2.45-4.028 4.284-1.023 1.832-1.769 3.942-2.238 6.329-.426 2.344-.639 4.859-.639 7.544ZM479.624 144h-20.075V68.941c0-5.328 1.044-9.803 3.132-13.426 2.131-3.623 5.136-6.372 9.015-8.247 3.879-1.876 8.461-2.813 13.746-2.813 1.833 0 3.538.127 5.115.383 1.619.213 3.196.512 4.731.895V60.63a16.057 16.057 0 0 0-2.494-.448 31.422 31.422 0 0 0-3.069-.128c-2.131 0-3.963.341-5.498 1.023-1.492.64-2.642 1.641-3.452 3.005-.768 1.322-1.151 2.941-1.151 4.86V144Zm13.682-69.177v14.002h-43.859V74.823h43.859Zm43.795 0v14.002h-41.046V74.823h41.046ZM505.453 57.69h20.012v64.637c0 1.918.234 3.389.703 4.412.469 1.023 1.236 1.747 2.302 2.174 1.065.383 2.429.575 4.091.575 1.194 0 2.217-.043 3.069-.128a31.757 31.757 0 0 0 2.366-.32v14.45c-1.705.554-3.517.98-5.435 1.278-1.918.341-4.006.512-6.265.512-4.305 0-8.035-.704-11.189-2.11-3.111-1.407-5.498-3.623-7.16-6.649-1.663-3.069-2.494-7.054-2.494-11.956V57.689Zm105.556 70.2V144H561.46v-16.111h49.549Zm-42.453-76.977V144h-20.842V50.912h20.842Zm36.059 37.465v15.6H561.46v-15.6h43.155Zm6.458-37.465v16.175H561.46V50.912h49.613Zm25.637 23.911 10.613 20.012 10.933-20.012h20.97l-18.86 33.757L680.121 144h-21.098l-11.636-21.354L635.815 144h-21.162l19.756-35.42-18.797-33.757h21.098Zm70.647 13.299v82.475H687.41V74.823h18.605l1.342 13.299Zm43.156 20.522v1.343c0 5.03-.575 9.697-1.726 14.002-1.151 4.262-2.877 7.991-5.179 11.188-2.259 3.197-5.051 5.69-8.375 7.48-3.325 1.748-7.182 2.622-11.572 2.622-4.177 0-7.8-.874-10.869-2.622-3.026-1.79-5.584-4.262-7.672-7.416-2.046-3.197-3.708-6.841-4.987-10.933-1.236-4.134-2.195-8.546-2.877-13.234v-2.621c.682-4.987 1.662-9.612 2.941-13.874 1.279-4.262 2.941-7.95 4.987-11.06 2.046-3.155 4.582-5.606 7.608-7.353 3.026-1.748 6.628-2.621 10.805-2.621 4.347 0 8.205.83 11.572 2.493 3.367 1.662 6.18 4.05 8.439 7.16 2.302 3.07 4.028 6.756 5.179 11.061 1.151 4.305 1.726 9.1 1.726 14.385Zm-20.011 1.343v-1.343c0-2.813-.213-5.391-.64-7.736-.426-2.386-1.108-4.454-2.046-6.201-.937-1.79-2.173-3.176-3.708-4.156-1.534-.98-3.41-1.47-5.626-1.47-2.387 0-4.411.383-6.074 1.15a9.743 9.743 0 0 0-4.028 3.389c-1.023 1.449-1.768 3.24-2.237 5.37-.427 2.131-.661 4.561-.704 7.289v7.033c.043 3.196.491 6.052 1.343 8.567.895 2.472 2.28 4.411 4.156 5.818 1.918 1.364 4.475 2.046 7.672 2.046 2.259 0 4.134-.49 5.626-1.471 1.534-1.023 2.749-2.451 3.644-4.283.938-1.833 1.599-3.943 1.982-6.33.427-2.387.64-4.944.64-7.672Zm63.231 35.292c-5.499 0-10.422-.874-14.769-2.622-4.348-1.747-8.035-4.155-11.061-7.224a32.317 32.317 0 0 1-6.841-10.741c-1.577-4.049-2.365-8.376-2.365-12.979v-2.429c0-5.158.724-9.91 2.173-14.258 1.45-4.347 3.559-8.12 6.33-11.316 2.813-3.24 6.265-5.733 10.357-7.48 4.092-1.79 8.759-2.686 14.002-2.686 4.901 0 9.27.81 13.106 2.43 3.836 1.577 7.076 3.857 9.718 6.841 2.643 2.941 4.646 6.5 6.01 10.677 1.407 4.134 2.11 8.78 2.11 13.938v8.183h-55.751v-12.851h36.187v-1.534c0-2.43-.447-4.56-1.343-6.393-.852-1.833-2.131-3.24-3.836-4.22-1.662-1.023-3.772-1.534-6.329-1.534-2.43 0-4.454.511-6.074 1.534-1.619 1.023-2.919 2.472-3.9 4.348-.938 1.832-1.619 3.985-2.046 6.457-.426 2.429-.639 5.051-.639 7.864v2.429c0 2.685.362 5.136 1.087 7.353.724 2.216 1.79 4.113 3.197 5.69 1.406 1.577 3.111 2.813 5.114 3.708 2.004.895 4.284 1.343 6.841 1.343 3.154 0 6.159-.597 9.015-1.791 2.856-1.236 5.328-3.154 7.416-5.754l9.335 10.677c-1.407 2.046-3.389 4.028-5.946 5.946-2.515 1.876-5.541 3.41-9.079 4.604-3.538 1.193-7.544 1.79-12.019 1.79Zm58.499-54.344V144h-19.947V74.823h18.733l1.214 16.112Zm20.651-16.623-.32 18.605c-.852-.128-1.96-.235-3.324-.32-1.364-.128-2.536-.192-3.517-.192-2.557 0-4.773.32-6.649.96-1.832.596-3.367 1.49-4.603 2.684-1.193 1.194-2.088 2.686-2.685 4.476-.597 1.747-.895 3.772-.895 6.074l-3.772-1.855c0-4.56.447-8.737 1.342-12.53.895-3.794 2.195-7.076 3.9-9.847 1.705-2.813 3.794-4.986 6.266-6.52 2.472-1.535 5.285-2.302 8.439-2.302 1.023 0 2.067.064 3.133.191 1.065.128 1.96.32 2.685.576Zm46.544.511v14.002h-41.046V74.823h41.046ZM887.78 57.69h20.011v64.637c0 1.918.235 3.389.703 4.412.469 1.023 1.236 1.747 2.302 2.174 1.066.383 2.43.575 4.092.575 1.193 0 2.216-.043 3.069-.128a31.727 31.727 0 0 0 2.365-.32v14.45c-1.705.554-3.516.98-5.434 1.278-1.918.341-4.007.512-6.266.512-4.305 0-8.034-.704-11.188-2.11-3.112-1.407-5.499-3.623-7.161-6.649-1.662-3.069-2.493-7.054-2.493-11.956V57.689Z" class="color2D74B7 svgShape"></path><path fill="#1d9628" d="M348.942 230.449c0-1.577-.234-2.983-.703-4.219-.469-1.279-1.321-2.451-2.557-3.517-1.236-1.065-2.984-2.131-5.243-3.196-2.259-1.109-5.221-2.238-8.887-3.389a119.972 119.972 0 0 1-11.955-4.603c-3.751-1.748-7.097-3.772-10.038-6.074s-5.264-4.987-6.969-8.056c-1.662-3.069-2.493-6.649-2.493-10.741 0-3.964.873-7.544 2.621-10.741 1.748-3.196 4.198-5.924 7.352-8.183 3.155-2.302 6.863-4.049 11.125-5.243 4.262-1.236 8.951-1.854 14.065-1.854 6.82 0 12.809 1.215 17.966 3.644 5.2 2.387 9.249 5.754 12.147 10.102 2.899 4.305 4.348 9.313 4.348 15.025h-20.715c0-2.515-.532-4.732-1.598-6.65-1.023-1.96-2.6-3.495-4.731-4.603-2.089-1.108-4.71-1.662-7.864-1.662-3.069 0-5.648.469-7.736 1.406-2.046.895-3.602 2.132-4.667 3.709a9.325 9.325 0 0 0-1.535 5.178c0 1.492.384 2.856 1.151 4.092.81 1.193 1.961 2.323 3.453 3.389 1.534 1.022 3.409 2.003 5.626 2.94 2.216.938 4.752 1.833 7.608 2.686 4.987 1.577 9.398 3.324 13.234 5.242 3.879 1.918 7.14 4.092 9.782 6.522 2.643 2.429 4.625 5.178 5.946 8.247 1.364 3.069 2.046 6.543 2.046 10.421 0 4.135-.81 7.8-2.429 10.997-1.578 3.197-3.879 5.925-6.905 8.184-2.984 2.216-6.564 3.9-10.741 5.05-4.177 1.151-8.845 1.727-14.002 1.727-4.688 0-9.313-.597-13.874-1.79-4.56-1.237-8.695-3.112-12.403-5.627-3.665-2.514-6.606-5.711-8.823-9.59-2.174-3.921-3.26-8.567-3.26-13.937h20.842c0 2.813.405 5.2 1.215 7.16.81 1.918 1.961 3.474 3.452 4.667 1.535 1.194 3.389 2.046 5.563 2.558 2.173.511 4.603.767 7.288.767 3.112 0 5.626-.426 7.544-1.279 1.961-.895 3.41-2.11 4.348-3.644.938-1.534 1.406-3.239 1.406-5.115Zm72.63 7.864v-52.49h20.075V255H422.85l-1.278-16.687Zm2.109-14.129 5.499-.128c0 4.646-.554 8.929-1.662 12.851-1.066 3.921-2.686 7.331-4.859 10.229a22.322 22.322 0 0 1-7.992 6.777c-3.154 1.577-6.841 2.366-11.061 2.366-3.41 0-6.542-.469-9.398-1.407-2.813-.98-5.243-2.493-7.289-4.539-2.046-2.089-3.623-4.753-4.731-7.992-1.108-3.282-1.662-7.203-1.662-11.764v-44.754h19.947v44.882c0 1.79.213 3.325.64 4.603.469 1.236 1.087 2.259 1.854 3.069.81.81 1.79 1.407 2.941 1.79 1.193.384 2.493.576 3.9.576 3.537 0 6.308-.725 8.311-2.174 2.046-1.492 3.474-3.474 4.284-5.946.852-2.515 1.278-5.328 1.278-8.439Zm51.979-38.361V255h-20.011v-69.177h20.011Zm-21.226-17.901c0-2.899 1.023-5.264 3.069-7.097 2.046-1.875 4.731-2.813 8.055-2.813 3.325 0 6.01.938 8.056 2.813 2.089 1.833 3.133 4.198 3.133 7.097 0 2.855-1.044 5.221-3.133 7.096-2.046 1.833-4.731 2.75-8.056 2.75-3.324 0-6.009-.917-8.055-2.75-2.046-1.875-3.069-4.241-3.069-7.096Zm70.775 17.901v14.002h-41.046v-14.002h41.046Zm-31.647-17.134h20.011v64.637c0 1.918.234 3.389.703 4.412.469 1.023 1.236 1.747 2.302 2.174 1.065.383 2.429.575 4.092.575 1.193 0 2.216-.043 3.068-.128a31.757 31.757 0 0 0 2.366-.32v14.45c-1.705.554-3.516.98-5.434 1.278-1.918.341-4.007.512-6.266.512-4.305 0-8.034-.704-11.188-2.11-3.112-1.407-5.499-3.623-7.161-6.649-1.662-3.069-2.493-7.054-2.493-11.956v-66.875Zm73.844 87.59c-5.499 0-10.422-.874-14.769-2.622-4.348-1.747-8.035-4.155-11.061-7.224a32.317 32.317 0 0 1-6.841-10.741c-1.577-4.049-2.365-8.376-2.365-12.979v-2.429c0-5.158.724-9.91 2.173-14.258 1.45-4.347 3.559-8.119 6.33-11.316 2.813-3.239 6.265-5.733 10.357-7.48 4.092-1.79 8.759-2.685 14.002-2.685 4.901 0 9.27.809 13.106 2.429 3.836 1.577 7.076 3.857 9.718 6.841 2.643 2.941 4.646 6.5 6.01 10.677 1.407 4.134 2.11 8.78 2.11 13.938v8.183h-55.751v-12.851h36.187v-1.534c0-2.429-.447-4.561-1.343-6.393-.852-1.833-2.131-3.24-3.836-4.22-1.662-1.023-3.772-1.534-6.329-1.534-2.43 0-4.454.511-6.074 1.534-1.62 1.023-2.92 2.472-3.9 4.347-.938 1.833-1.62 3.986-2.046 6.458-.426 2.429-.639 5.051-.639 7.864v2.429c0 2.685.362 5.136 1.087 7.353.724 2.216 1.79 4.113 3.197 5.69 1.406 1.577 3.111 2.813 5.114 3.708 2.004.895 4.284 1.343 6.841 1.343 3.154 0 6.159-.597 9.015-1.791 2.856-1.236 5.328-3.154 7.416-5.754l9.335 10.677c-1.407 2.046-3.389 4.028-5.946 5.946-2.515 1.876-5.541 3.41-9.079 4.604-3.538 1.193-7.544 1.79-12.019 1.79Z" class="colorF32C40 svgShape"></path></svg></g></svg>