<svg id="SvgjsSvg1001" width="288" height="288" xmlns="http://www.w3.org/2000/svg" version="1.1" xmlns:xlink="http://www.w3.org/1999/xlink" xmlns:svgjs="http://svgjs.com/svgjs"><defs id="SvgjsDefs1002"></defs><g id="SvgjsG1008"><svg xmlns="http://www.w3.org/2000/svg" viewBox="0 0 900 446" width="288" height="288"><path fill="#1d9628" d="M0 0 C1.24330078 -0.020625 2.48660156 -0.04125 3.76757812 -0.0625 C14.97464973 -0.10907484 25.38767522 1.94588757 36.0625 5.25 C35.74807409 8.22394506 35.2322718 9.11115092 32.875 11.0390625 C31.946875 11.64492188 31.01875 12.25078125 30.0625 12.875 C22.98977563 17.8551483 16.89565618 23.30674166 13.06640625 31.1875 C8.91096728 39.61192542 8.91096728 39.61192542 6.0625 42.25 C1.84894313 43.42116628 -1.66624062 43.47006592 -5.9921875 43.3125 C-13.96212741 43.18624353 -21.03638494 46.50098608 -27.15625 51.4921875 C-34.54049564 58.77927201 -38.17114282 68.14484475 -38.9375 78.37890625 C-38.9375 91.52028922 -36.13949272 103.55723433 -26.9375 113.25 C-16.47993645 121.97121338 -4.23622493 124.08795933 9.0625 123.25 C19.02538599 121.58245312 27.13271831 116.26056752 33.5 108.5078125 C38.61314291 101.119321 40.81700425 92.83398692 43.0625 84.25 C41.20733765 84.25785522 41.20733765 84.25785522 39.31469727 84.26586914 C34.74325275 84.28391561 30.17181141 84.29543071 25.6003418 84.30493164 C23.61856559 84.30997267 21.63679311 84.31680538 19.6550293 84.32543945 C16.81297891 84.33751515 13.97097753 84.34323045 11.12890625 84.34765625 C9.79141075 84.35539818 9.79141075 84.35539818 8.42689514 84.36329651 C6.30509399 84.36349177 4.1833922 84.3121003 2.0625 84.25 C1.7325 83.92 1.4025 83.59 1.0625 83.25 C1.15824997 61.10781919 6.5652521 40.07583478 22.125 23.625 C32.53950567 13.67872142 44.28850151 7.37885634 58.0625 3.25 C58.95259766 2.98147217 59.84269531 2.71294434 60.75976562 2.4362793 C68.34770197 0.33136378 75.45699028 -0.25787474 83.3125 -0.1875 C84.49400635 -0.18065186 85.6755127 -0.17380371 86.89282227 -0.16674805 C100.7053373 0.08586799 112.5577461 3.30368346 125.0625 9.25 C125.97386719 9.66765625 126.88523437 10.0853125 127.82421875 10.515625 C135.77913208 14.46471179 141.84449022 20.04071113 148.0625 26.25 C148.80628906 26.9821875 149.55007813 27.714375 150.31640625 28.46875 C164.59427405 43.44514362 170.46541228 63.58601251 170.36499023 83.96923828 C169.81935578 105.40378982 162.2533825 125.12161694 148.0625 141.25 C147.04542969 142.41015625 147.04542969 142.41015625 146.0078125 143.59375 C132.69048118 157.83792856 113.61588678 165.69833857 94.31640625 166.5703125 C63.07224647 167.397892 63.07224647 167.397892 51.0625 160.25 C52.25547525 156.67107426 53.12830155 156.30972098 56.25 154.375 C63.17434605 150.05760536 67.99719918 145.4732198 72.6875 138.875 C73.1515625 138.24078125 73.615625 137.6065625 74.09375 136.953125 C76.35700753 133.8203674 78.30542372 130.79361133 79.99609375 127.31640625 C82.0625 124.25 82.0625 124.25 85.05859375 123.48828125 C86.76208984 123.52501953 86.76208984 123.52501953 88.5 123.5625 C99.07947743 123.29828828 109.44437595 121.0594468 117.0625 113.25 C126.02281001 102.5917317 127.02583553 90.95688726 126.26953125 77.52978516 C125.41197464 68.08654978 121.97142378 59.80068329 115.0625 53.25 C103.55133949 44.21056107 92.33751937 42.21789575 78.0625 43.25 C69.3205491 44.55775815 61.56575268 48.87595794 56.01953125 55.80078125 C50.4536477 64.19114301 47.49516054 72.51935784 45.0625 82.25 C58.5925 82.25 72.1225 82.25 86.0625 82.25 C86.0625 102.6908561 83.49958937 115.25548794 74.0625 132.25 C73.52753906 133.22582031 72.99257813 134.20164063 72.44140625 135.20703125 C71.75884766 136.21830078 71.75884766 136.21830078 71.0625 137.25 C70.4025 137.25 69.7425 137.25 69.0625 137.25 C68.82015625 137.82234375 68.5778125 138.3946875 68.328125 138.984375 C61.09914749 151.92513721 42.73549407 159.27324898 29.19921875 163.65283203 C4.5479587 170.54234095 -20.76541455 166.14324554 -42.9375 154.125 C-62.27566908 142.49168466 -75.05288142 124.0506934 -80.6875 102.36328125 C-85.58814461 77.96215498 -80.16788156 53.97916321 -66.68798828 33.34082031 C-54.37719277 15.56478542 -37.37604769 5.62372381 -16.58569336 0.69213867 C-11.1149378 -0.22125105 -5.53273747 0.02232068 0 0 Z " transform="translate(407.938 44.75)" class="colorF58939 svgShape"></path><path fill="#1d9628" d="M0 0 C7.77918697 5.79189887 12.96898963 13.99426385 15.00390625 23.484375 C16.59612962 34.64935592 14.92110713 46.3286042 8.32421875 55.73046875 C7.66421875 55.73046875 7.00421875 55.73046875 6.32421875 55.73046875 C6.07542969 56.31828125 5.82664062 56.90609375 5.5703125 57.51171875 C1.86093543 64.11650301 -5.84506238 67.76484563 -12.7890625 70.01171875 C-25.30507185 73.12801878 -36.47670961 71.62690725 -47.8125 65.5546875 C-56.30619708 60.14328704 -62.43226676 52.59748271 -65.21557617 42.83764648 C-67.32104842 33.19715258 -66.8673564 21.22995019 -61.67578125 12.73046875 C-55.36424275 2.96755729 -46.74289511 -3.96459153 -35.35546875 -6.859375 C-22.45027365 -8.83465996 -11.02810313 -7.01158833 0 0 Z M-40.0234375 19.26953125 C-43.11964048 23.95267698 -44.01426874 29.1825763 -43.67578125 34.73046875 C-42.08582991 41.52479499 -39.49164227 45.89447531 -33.67578125 49.73046875 C-28.57971611 51.42915713 -22.68288757 51.74199994 -17.5390625 50.01171875 C-12.42527036 47.26069825 -9.54407408 43.8391799 -7.36328125 38.54296875 C-6.19152233 32.04503289 -6.50538068 26.22056201 -9.73828125 20.35546875 C-12.63952724 16.26056727 -15.85405923 14.08526324 -20.67578125 12.73046875 C-28.54361663 11.41707811 -34.70604224 13.19691173 -40.0234375 19.26953125 Z " transform="translate(376.676 267.27)" class="color434343 svgShape"></path><path fill="#1d9628" d="M0 0 C9.62588392 7.13504584 15.71333796 15.29731006 17.77734375 27.171875 C19.25158607 39.72973912 16.41057461 49.68359552 8.65234375 59.67578125 C1.07592266 67.99406024 -9.42587772 72.68441209 -20.59765625 73.421875 C-33.02644741 73.53635071 -43.53935067 70.03497085 -52.59765625 61.421875 C-60.11142401 53.81883476 -63.66917781 44.47124609 -64.03515625 33.796875 C-63.63648399 24.66728028 -61.0528063 16.74692068 -55.59765625 9.421875 C-54.99050781 8.596875 -54.38335938 7.771875 -53.7578125 6.921875 C-40.82191665 -8.04914371 -16.4542391 -9.99625954 0 0 Z M-38.59765625 22.421875 C-41.88624744 29.31809981 -42.10807935 35.23858514 -39.59765625 42.421875 C-37.47934035 46.6585068 -35.0682596 49.52688883 -30.7890625 51.7265625 C-24.83592573 53.61543655 -18.69154123 53.43142669 -13.09765625 50.734375 C-7.50251042 45.55886511 -5.04882192 41.28900929 -4.16015625 33.671875 C-4.35915574 27.57312583 -7.04431263 21.95257256 -11.359375 17.67578125 C-20.64254691 11.02880421 -31.73929012 13.7098964 -38.59765625 22.421875 Z " transform="translate(683.598 265.578)" class="color434343 svgShape"></path><path fill="#1d9628" d="M0 0 C20.13 0 40.26 0 61 0 C61 6.27 61 12.54 61 19 C48.13 19 35.26 19 22 19 C22 22.3 22 25.6 22 29 C33.55 29 45.1 29 57 29 C57 34.94 57 40.88 57 47 C45.45 47 33.9 47 22 47 C22 50.3 22 53.6 22 57 C34.87 57 47.74 57 61 57 C61 63.27 61 69.54 61 76 C40.87 76 20.74 76 0 76 C0 50.92 0 25.84 0 0 Z " transform="translate(711 261)" class="color424242 svgShape"></path><path fill="#1d9628" d="M0 0 C7.26 0 14.52 0 22 0 C22.03738281 3.39539063 22.07476562 6.79078125 22.11328125 10.2890625 C22.15952149 13.58551393 22.21074619 16.88185295 22.26245117 20.17822266 C22.29566006 22.46526226 22.32370451 24.75238303 22.34643555 27.03955078 C22.3800551 30.33140578 22.43237624 33.62251972 22.48828125 36.9140625 C22.49467117 37.93303619 22.5010611 38.95200989 22.50764465 40.00186157 C22.61868395 45.39021939 22.92910592 49.36599103 26 54 C28.91586476 56.11400195 31.45268233 56.27162999 35 56.25 C35.845625 56.25515625 36.69125 56.2603125 37.5625 56.265625 C40.30812276 55.96642252 41.75832189 55.62521663 44 54 C47.64450953 48.50039976 47.4717865 43.28188765 47.51171875 36.9140625 C47.52966995 35.85714203 47.54762115 34.80022156 47.56611633 33.71127319 C47.62011938 30.3492222 47.65408362 26.9873124 47.6875 23.625 C47.72068183 21.33982415 47.75517229 19.0546669 47.79101562 16.76953125 C47.8782938 11.17966828 47.93844996 5.59044193 48 0 C55.26 0 62.52 0 70 0 C70.06911502 7.08045001 70.12877763 14.15971501 70.16479492 21.24023438 C70.17982006 23.64554831 70.20024596 26.05083513 70.22631836 28.45605469 C70.262978 31.92650064 70.27978971 35.39658227 70.29296875 38.8671875 C70.30845261 39.93113739 70.32393646 40.99508728 70.33988953 42.09127808 C70.34212575 52.16055535 68.5522416 60.94577491 61.57421875 68.5546875 C53.08843616 76.69617819 43.04739559 77.62885815 31.78417969 77.54077148 C22.50580628 77.21581233 14.97138977 75.04634088 8 68.6875 C2.22186512 62.21880753 -0.13448409 55.27296064 -0.11352539 46.65893555 C-0.11344986 45.6182341 -0.11337433 44.57753265 -0.11329651 43.5052948 C-0.10813522 42.3936647 -0.10297394 41.28203461 -0.09765625 40.13671875 C-0.0962413 38.98959915 -0.09482635 37.84247955 -0.09336853 36.66059875 C-0.08777861 33.00287246 -0.07522789 29.34520775 -0.0625 25.6875 C-0.0574837 23.20507901 -0.05292102 20.72265706 -0.04882812 18.24023438 C-0.03781246 12.16013258 -0.02055469 6.08007673 0 0 Z " transform="translate(464 261)" class="color424242 svgShape"></path><path fill="#1d9628" d="M0 0 C0.495 0.45375 0.99 0.9075 1.5 1.375 C1.5 2.035 1.5 2.695 1.5 3.375 C0.84 3.375 0.18 3.375 -0.5 3.375 C-0.88285156 4.46361328 -0.88285156 4.46361328 -1.2734375 5.57421875 C-2.56801074 8.5302984 -4.10455104 10.68064666 -6.125 13.1875 C-6.75664062 13.97769531 -7.38828125 14.76789063 -8.0390625 15.58203125 C-8.52117187 16.17371094 -9.00328125 16.76539063 -9.5 17.375 C-10.25925781 17.02566406 -11.01851563 16.67632812 -11.80078125 16.31640625 C-12.79464844 15.86136719 -13.78851563 15.40632813 -14.8125 14.9375 C-15.79863281 14.48503906 -16.78476562 14.03257812 -17.80078125 13.56640625 C-22.02593348 11.7014693 -25.09324048 11.26309936 -29.6875 11.3125 C-30.77417969 11.32152344 -31.86085938 11.33054687 -32.98046875 11.33984375 C-33.81191406 11.35144531 -34.64335937 11.36304688 -35.5 11.375 C-35.83 13.025 -36.16 14.675 -36.5 16.375 C-35.48421875 16.68953125 -34.4684375 17.0040625 -33.421875 17.328125 C-29.81393318 18.44733046 -26.2106581 19.58100192 -22.60791016 20.71679688 C-20.74648536 21.29803399 -18.87948109 21.86133714 -17.01171875 22.421875 C-9.54858976 24.73572948 -3.2955975 27.01608287 0.875 33.9375 C3.88289895 40.30036316 4.35336164 45.92179645 2.5 52.8125 C0.16485599 59.1476592 -4.07601969 63.31131068 -9.80078125 66.76171875 C-20.43446809 71.4749392 -35.1448496 70.95404865 -46.0703125 67.36328125 C-51.9789951 64.95991035 -57.46512042 62.32032705 -62.5 58.375 C-62.08269656 53.51829827 -59.6999142 50.92363925 -56.4375 47.5625 C-55.72883789 46.80936523 -55.72883789 46.80936523 -55.00585938 46.04101562 C-53.84591548 44.81077211 -52.67411185 43.59172935 -51.5 42.375 C-49.54700125 43.3385941 -47.61216359 44.31230594 -45.7109375 45.375 C-37.38849558 49.90807475 -29.79521853 50.87422879 -20.5 49.375 C-20.5 47.725 -20.5 46.075 -20.5 44.375 C-25.5824079 42.3005478 -30.60491339 40.81973471 -35.9375 39.5 C-45.41245436 37.0623484 -52.94659596 33.74477324 -58.5 25.375 C-60.42474772 19.60075685 -60.58421574 12.22421028 -58.3125 6.5 C-53.94966433 -1.02213046 -49.60009093 -4.44824559 -41.5 -7.625 C-27.2215885 -11.31649175 -12.15369238 -7.89990004 0 0 Z " transform="translate(301.5 268.625)" class="color444 svgShape"></path><path fill="#1d9628" d="M0 0 C0.57105469 0.52722656 1.14210938 1.05445313 1.73046875 1.59765625 C1.73046875 6.42429907 -0.04316783 8.62244497 -2.76953125 12.34765625 C-3.19878906 12.94964844 -3.62804687 13.55164063 -4.0703125 14.171875 C-5.1283601 15.65314164 -6.19785116 17.12622247 -7.26953125 18.59765625 C-9.66427321 17.67628239 -11.97920271 16.75580738 -14.234375 15.52734375 C-21.08480933 11.86473529 -27.65456181 12.20770049 -35.26953125 12.59765625 C-35.12744092 15.04666942 -35.12744092 15.04666942 -34.26953125 17.59765625 C-32.30025924 18.91149861 -32.30025924 18.91149861 -29.70703125 19.59765625 C-28.71960938 19.91992188 -27.7321875 20.2421875 -26.71484375 20.57421875 C-24.23350535 21.31130567 -21.75005478 22.0336164 -19.26171875 22.74609375 C-9.98913734 25.43950094 -3.01513488 28.00929181 3.23046875 35.66015625 C6.11658135 41.45815032 5.74772666 48.88978126 4.0703125 55.00390625 C1.14739043 61.58364423 -4.13580835 65.78417345 -10.45703125 68.97265625 C-22.40192703 73.31957551 -37.89014682 71.6863796 -49.26953125 66.59765625 C-59.23394042 61.64853403 -59.23394042 61.64853403 -61.26953125 56.59765625 C-60.64304687 55.91058594 -60.0165625 55.22351563 -59.37109375 54.515625 C-58.55382812 53.61457031 -57.7365625 52.71351563 -56.89453125 51.78515625 C-56.08242188 50.89183594 -55.2703125 49.99851562 -54.43359375 49.078125 C-52.17880218 46.60132951 -52.17880218 46.60132951 -50.26953125 43.59765625 C-47.23476716 44.73569278 -44.42286267 46.05335033 -41.58203125 47.59765625 C-34.24386038 51.28747098 -27.28330093 52.08168767 -19.26953125 50.59765625 C-18.93953125 49.27765625 -18.60953125 47.95765625 -18.26953125 46.59765625 C-23.65014755 42.76566271 -29.94494779 41.66477914 -36.2578125 40.11132812 C-43.69833567 38.1361101 -50.35936568 35.27426146 -55.2421875 29.10546875 C-58.71803968 21.50593531 -59.44702481 16.49559674 -56.76953125 8.53515625 C-53.91483371 1.97843046 -49.04816846 -2.32663922 -42.58203125 -5.27734375 C-28.29632806 -10.129092 -12.78907603 -7.62464787 0 0 Z " transform="translate(837.27 267.402)" class="color444 svgShape"></path><path fill="#1d9628" d="M0 0 C2.66021048 2.0696333 4.89113007 3.8904835 6.98828125 6.546875 C6.7565675 9.01482488 6.30851534 10.2117164 4.58959961 12.01074219 C3.71766968 12.67058105 3.71766968 12.67058105 2.828125 13.34375 C2.19970703 13.82714844 1.57128906 14.31054688 0.92382812 14.80859375 C0.26447266 15.29972656 -0.39488281 15.79085938 -1.07421875 16.296875 C-1.73744141 16.80347656 -2.40066406 17.31007813 -3.08398438 17.83203125 C-4.71967685 19.07939386 -6.36481459 20.31435318 -8.01171875 21.546875 C-8.5428125 21.13695312 -9.07390625 20.72703125 -9.62109375 20.3046875 C-10.3275 19.76585937 -11.03390625 19.22703125 -11.76171875 18.671875 C-12.4578125 18.13820313 -13.15390625 17.60453125 -13.87109375 17.0546875 C-18.90796746 13.5068166 -22.91007349 12.72232834 -29.01171875 13.546875 C-34.3221013 15.372319 -37.36427829 18.65929261 -40.01171875 23.546875 C-42.34494542 29.37994168 -41.4001985 36.05567781 -39.0703125 41.71875 C-36.95893102 45.36497337 -33.76057098 47.67244889 -30.01171875 49.546875 C-23.15217278 50.32463021 -17.73657304 49.50006537 -12.01171875 45.546875 C-11.52574219 44.98613281 -11.03976562 44.42539062 -10.5390625 43.84765625 C-9.01171875 42.546875 -9.01171875 42.546875 -7.24609375 42.57421875 C-3.96700471 44.00165436 -1.15319772 46.03450053 1.73828125 48.109375 C2.34027344 48.53412109 2.94226563 48.95886719 3.5625 49.39648438 C5.04157839 50.44123022 6.51545384 51.49333516 7.98828125 52.546875 C5.61720927 59.5867588 0.38155676 63.73944528 -6.0625 67.171875 C-11.276218 69.45734042 -15.26246148 70.81943238 -21.01171875 70.546875 C-21.25921875 71.68125 -21.50671875 72.815625 -21.76171875 73.984375 C-22.94370877 78.77229108 -24.89482666 83.10756733 -27.01171875 87.546875 C-31.06991058 86.89184218 -34.55143157 85.60128379 -38.32421875 83.984375 C-39.39285156 83.52933594 -40.46148438 83.07429688 -41.5625 82.60546875 C-42.77486328 82.08146484 -42.77486328 82.08146484 -44.01171875 81.546875 C-44.01171875 80.556875 -44.01171875 79.566875 -44.01171875 78.546875 C-43.35171875 78.546875 -42.69171875 78.546875 -42.01171875 78.546875 C-41.74359375 77.78375 -41.47546875 77.020625 -41.19921875 76.234375 C-40.05047035 73.63457598 -39.04313115 72.44471508 -37.01171875 70.546875 C-37.71296875 70.19496094 -38.41421875 69.84304688 -39.13671875 69.48046875 C-50.59189214 63.51942064 -58.78002413 56.79926097 -63.15234375 44.28125 C-65.55992728 33.81920522 -65.57651735 20.95617156 -60.01171875 11.546875 C-45.74696448 -7.99583835 -20.4896082 -14.70302258 0 0 Z " transform="translate(607.012 267.453)" class="color454545 svgShape"></path><path fill="#1d9628" d="M0 0 C21.35094589 -1.79514656 21.35094589 -1.79514656 27.19921875 2.16796875 C29.21059598 5.03289702 30.63010676 7.78391217 32 11 C32.97458196 12.57847909 33.9716139 14.14353488 35 15.6875 C35.66 16.780625 36.32 17.87375 37 19 C38.04306085 17.52181613 39.08435154 16.04238319 40.125 14.5625 C40.99511719 13.32693359 40.99511719 13.32693359 41.8828125 12.06640625 C43.97289434 9.20069261 43.97289434 9.20069261 45.14599609 6.66381836 C46.56144787 4.01396097 47.80065575 2.05668849 50 0 C54.17418086 -1.10233912 58.09498509 -0.85741269 62.375 -0.5625 C63.49261719 -0.52189453 64.61023438 -0.48128906 65.76171875 -0.43945312 C68.51228857 -0.33366198 71.25388611 -0.18606401 74 0 C72.39910601 4.64259258 69.91214203 8.4327789 67.2109375 12.48828125 C66.74765045 13.19147995 66.2843634 13.89467865 65.80703735 14.6191864 C64.33389106 16.85309753 62.85455334 19.08282851 61.375 21.3125 C60.37198372 22.83110809 59.36937498 24.34998544 58.3671875 25.86914062 C55.91616737 29.58256212 53.4595881 33.29224853 51 37 C53.44519642 41.35178693 55.96858133 45.57387435 58.75 49.72265625 C59.4409375 50.75583984 60.131875 51.78902344 60.84375 52.85351562 C61.5553125 53.91248047 62.266875 54.97144531 63 56.0625 C63.7115625 57.12533203 64.423125 58.18816406 65.15625 59.28320312 C65.8471875 60.31509766 66.538125 61.34699219 67.25 62.41015625 C68.23226562 63.87799561 68.23226562 63.87799561 69.234375 65.37548828 C70.27785043 66.92656142 71.32745451 68.47359028 72.390625 70.01123047 C75 73.7978103 75 73.7978103 75 76 C53.78259854 78.69950819 53.78259854 78.69950819 47.75244141 74.39599609 C42.85344408 68.92341929 39.63074776 62.13452145 38 55 C34.02659088 58.52883188 31.53552337 62.68911338 28.8125 67.1875 C27.92424141 68.63997434 27.03497178 70.09183103 26.14453125 71.54296875 C25.75628174 72.18258545 25.36803223 72.82220215 24.96801758 73.48120117 C24 75 24 75 23 76 C21.21928754 76.08726223 19.4351686 76.10699041 17.65234375 76.09765625 C16.57275391 76.09443359 15.49316406 76.09121094 14.38085938 76.08789062 C13.24455078 76.07951172 12.10824219 76.07113281 10.9375 76.0625 C9.79732422 76.05798828 8.65714844 76.05347656 7.48242188 76.04882812 C4.65489649 76.03699747 1.8274736 76.0205141 -1 76 C-0.3645413 72.17425622 1.42164024 69.62162264 3.60546875 66.45703125 C4.34216797 65.38259766 5.07886719 64.30816406 5.83789062 63.20117188 C6.62089246 62.07147504 7.40409676 60.94191851 8.1875 59.8125 C8.95172697 58.70285605 9.71540416 57.59283326 10.47851562 56.48242188 C11.95985744 54.32785967 13.44272557 52.17434593 14.92724609 50.02197266 C17.65791025 46.0407994 20.33965294 42.02841451 23 38 C22.57952393 37.34008057 22.15904785 36.68016113 21.72583008 36.00024414 C18.58390961 31.06640989 15.44761409 26.12917945 12.32421875 21.18359375 C11.72416016 20.23548828 11.12410156 19.28738281 10.50585938 18.31054688 C9.2721464 16.36125387 8.04044086 14.41068919 6.81054688 12.45898438 C6.21693359 11.52248047 5.62332031 10.58597656 5.01171875 9.62109375 C4.48022217 8.7798999 3.94872559 7.93870605 3.40112305 7.07202148 C2.03071635 4.90427544 2.03071635 4.90427544 0 3 C0 2.01 0 1.02 0 0 Z " transform="translate(61 261)" class="colorF58D3F svgShape"></path><path fill="#1d9628" d="M0 0 C3.84171101 2.73628084 7.12110946 5.65746964 10.25 9.1875 C10.25 9.8475 10.25 10.5075 10.25 11.1875 C8.38617367 12.75406536 6.5287991 14.19810769 4.5625 15.625 C3.50675781 16.40746094 2.45101562 17.18992187 1.36328125 17.99609375 C-1.28546014 19.86051523 -3.94622419 21.56973696 -6.75 23.1875 C-7.20890625 22.77757812 -7.6678125 22.36765625 -8.140625 21.9453125 C-8.75421875 21.40648437 -9.3678125 20.86765625 -10 20.3125 C-10.60328125 19.77882813 -11.2065625 19.24515625 -11.828125 18.6953125 C-15.97684755 15.44042042 -19.24168708 14.73362859 -24.4375 14.87890625 C-28.20890884 15.38218547 -30.8945268 16.68803385 -33.75 19.1875 C-37.76773096 24.47398811 -38.99292904 29.55756163 -38.75 36.1875 C-37.93374209 41.13998787 -36.55358178 44.88048397 -32.6875 48.1875 C-27.42698063 51.76913021 -23.04436035 51.96688244 -16.75 51.1875 C-12.81969266 49.49677389 -9.76143391 47.19893391 -6.75 44.1875 C-2.54559682 44.40929191 0.69946635 47.38159509 4 49.75 C4.60199219 50.17474609 5.20398438 50.59949219 5.82421875 51.03710938 C7.30329714 52.08185522 8.77717259 53.13396016 10.25 54.1875 C7.90074428 61.29708968 1.84910649 65.97361335 -4.5625 69.5625 C-15.43276314 74.40568655 -27.84090752 74.26531679 -38.875 70.1875 C-50.02812086 65.06348767 -56.18275277 57.41180501 -60.75 46.1875 C-63.67831957 37.40254128 -63.10960691 24.51095658 -59.0078125 16.25 C-52.69910146 5.90528128 -45.46077502 -1.10807117 -33.75 -4.8125 C-33.13898438 -5.00585938 -32.52796875 -5.19921875 -31.8984375 -5.3984375 C-20.80870495 -7.53573141 -9.5325206 -6.03304045 0 0 Z " transform="translate(196.75 265.813)" class="colorF58C3F svgShape"></path><path fill="#1d9628" d="M0 0 C1.40958984 -0.00193359 1.40958984 -0.00193359 2.84765625 -0.00390625 C3.83636719 -0.00003906 4.82507813 0.00382812 5.84375 0.0078125 C7.32681641 0.00201172 7.32681641 0.00201172 8.83984375 -0.00390625 C9.77957031 -0.00261719 10.71929687 -0.00132812 11.6875 0 C12.55568359 0.00112793 13.42386719 0.00225586 14.31835938 0.00341797 C16.34375 0.1328125 16.34375 0.1328125 17.34375 1.1328125 C17.43728163 2.82083235 17.46119791 4.51276457 17.45727539 6.20336914 C17.45719986 7.28441422 17.45712433 8.36545929 17.45704651 9.47926331 C17.45188522 10.6552861 17.44672394 11.8313089 17.44140625 13.04296875 C17.4399913 14.24014023 17.43857635 15.43731171 17.43711853 16.67076111 C17.43149979 20.51230316 17.41894411 24.35378793 17.40625 28.1953125 C17.40123741 30.79231687 17.39667409 33.38932215 17.39257812 35.98632812 C17.38152427 42.36850929 17.36476792 48.7506568 17.34375 55.1328125 C18.39876709 55.15786865 19.45378418 55.1829248 20.54077148 55.20874023 C24.44145628 55.30265359 28.34195625 55.40291284 32.24243164 55.50512695 C33.93314299 55.54853689 35.62389991 55.59020739 37.31469727 55.63012695 C39.73988606 55.68768344 42.16484415 55.75141899 44.58984375 55.81640625 C45.73047523 55.84147499 45.73047523 55.84147499 46.89414978 55.86705017 C52.22987829 56.01894079 52.22987829 56.01894079 53.34375 57.1328125 C53.4421221 58.46324875 53.47453592 59.79874594 53.4765625 61.1328125 C53.47849609 62.339375 53.47849609 62.339375 53.48046875 63.5703125 C53.47660156 64.4159375 53.47273438 65.2615625 53.46875 66.1328125 C53.47455078 67.40125 53.47455078 67.40125 53.48046875 68.6953125 C53.47917969 69.4996875 53.47789062 70.3040625 53.4765625 71.1328125 C53.47543457 71.8753125 53.47430664 72.6178125 53.47314453 73.3828125 C53.34375 75.1328125 53.34375 75.1328125 52.34375 76.1328125 C50.53319975 76.22657303 48.71897799 76.2502536 46.90600586 76.24633789 C45.16431374 76.24622459 45.16431374 76.24622459 43.38743591 76.24610901 C41.49215904 76.23836708 41.49215904 76.23836708 39.55859375 76.23046875 C38.27263809 76.2290538 36.98668243 76.22763885 35.66175842 76.22618103 C32.23731557 76.22235668 28.81291491 76.21252712 25.38848877 76.20147705 C21.89636811 76.19126114 18.40424066 76.18668303 14.91210938 76.18164062 C8.05597222 76.17090477 1.19986313 76.15382934 -5.65625 76.1328125 C-5.67937446 66.37130262 -5.69716561 56.6097992 -5.70806217 46.84826756 C-5.71329078 42.31607156 -5.72038801 37.78389423 -5.73168945 33.25170898 C-5.74251914 28.8815842 -5.74852701 24.51147742 -5.75112724 20.14134026 C-5.75298135 18.47030287 -5.75660168 16.79926653 -5.76198006 15.12823677 C-5.76919159 12.79583699 -5.7702409 10.46351257 -5.76977539 8.13110352 C-5.77337067 7.4333934 -5.77696594 6.73568329 -5.78067017 6.01683044 C-5.7685785 0.45386519 -5.49750221 0.00714226 0 0 Z " transform="translate(406.656 260.867)" class="color494949 svgShape"></path><path fill="#1d9628" d="M0 0 C0.886875 0.18820313 1.77375 0.37640625 2.6875 0.5703125 C5.1875 1.1875 5.1875 1.1875 8.5 2.375 C11.56329643 3.30111287 13.18876813 3.2703754 16.1875 2.1875 C16.8475 1.1975 17.5075 0.2075 18.1875 -0.8125 C21.8175 -0.1525 25.4475 0.5075 29.1875 1.1875 C28.57879547 7.27454533 27.07094728 11.50720964 23.5625 16.5 C19.94649807 19.06926453 16.57248187 19.39272536 12.1875 19.1875 C9.55879386 18.56293523 7.04743155 17.76600723 4.48828125 16.90234375 C1.59067023 16.00206732 -0.80752071 15.73675311 -3.8125 16.1875 C-4.4725 17.1775 -5.1325 18.1675 -5.8125 19.1875 C-7.27130109 19.04642253 -8.72953551 18.89947585 -10.1875 18.75 C-11.40566406 18.62818359 -11.40566406 18.62818359 -12.6484375 18.50390625 C-14.8125 18.1875 -14.8125 18.1875 -16.8125 17.1875 C-16.34560465 10.4175175 -15.06051429 6.04181559 -9.75 1.375 C-6.16014789 -0.82523194 -3.99283836 -0.85254152 0 0 Z " transform="translate(654.813 238.813)" class="color4B4B4B svgShape"></path><path fill="#1d9628" d="M0 0 C7.92 0 15.84 0 24 0 C24.66 1.32 25.32 2.64 26 4 C25.34 3.67 24.68 3.34 24 3 C20.6720413 2.76200295 17.33553913 2.81481635 14 2.8125 C13.071875 2.80025391 12.14375 2.78800781 11.1875 2.77539062 C9.8571875 2.77249023 9.8571875 2.77249023 8.5 2.76953125 C7.6853125 2.76542236 6.870625 2.76131348 6.03125 2.75708008 C3.77302166 2.81488614 3.77302166 2.81488614 2 5 C1.34 4.34 0.68 3.68 0 3 C0 2.01 0 1.02 0 0 Z " transform="translate(61 261)" class="colorF8B380 svgShape"></path><path fill="#1d9628" d="M0 0 C7.92 0 15.84 0 24 0 C23.34 1.65 22.68 3.3 22 5 C21.34 4.67 20.68 4.34 20 4 C20 3.34 20 2.68 20 2 C9.605 2.495 9.605 2.495 -1 3 C-0.67 2.01 -0.34 1.02 0 0 Z " transform="translate(111 261)" class="colorF8B27E svgShape"></path><path fill="#1d9628" d="M0 0 C0.99 0 1.98 0 3 0 C1.4169423 4.2742558 -1.50568404 6.26531794 -5 9 C-5 4.66314164 -2.91985986 3.0556673 0 0 Z " transform="translate(250 266)" class="color707070 svgShape"></path><path fill="#1d9628" d="M0 0 C2 2 2 2 2 5 C1.34 5 0.68 5 0 5 C-0.10957031 5.63808594 -0.21914063 6.27617187 -0.33203125 6.93359375 C-0.49058594 7.75988281 -0.64914062 8.58617187 -0.8125 9.4375 C-0.96332031 10.26121094 -1.11414063 11.08492187 -1.26953125 11.93359375 C-1.51058594 12.61550781 -1.75164062 13.29742187 -2 14 C-2.99 14.33 -3.98 14.66 -5 15 C-3.33333333 10 -1.66666667 5 0 0 Z " transform="translate(449 136)" class="colorF8B380 svgShape"></path><path fill="#1d9628" d="M0 0 C-1.15093722 3.45281166 -2.3205993 4.38082163 -5.0625 6.6875 C-5.79597656 7.31011719 -6.52945312 7.93273437 -7.28515625 8.57421875 C-7.85105469 9.04472656 -8.41695313 9.51523438 -9 10 C-9.66 9.67 -10.32 9.34 -11 9 C-9.54782324 7.49403892 -8.08807139 5.99537896 -6.625 4.5 C-5.40683594 3.24703125 -5.40683594 3.24703125 -4.1640625 1.96875 C-2 0 -2 0 0 0 Z " transform="translate(360 60)" class="colorF8AB73 svgShape"></path><path fill="#1d9628" d="M0 0 C0 1.32 0 2.64 0 4 C0.99 4.66 1.98 5.32 3 6 C-2.75 5.125 -2.75 5.125 -5 4 C-4.67 3.01 -4.34 2.02 -4 1 C-2 0 -2 0 0 0 Z " transform="translate(464 201)" class="colorF8B480 svgShape"></path><path fill="#1d9628" d="M0 0 C1.39864092 3.17872935 0.89282517 4.30111022 -0.3125 7.6875 C-2 11 -2 11 -4 12 C-3.52309796 10.37433394 -3.04340334 8.74948689 -2.5625 7.125 C-2.29566406 6.22007813 -2.02882813 5.31515625 -1.75390625 4.3828125 C-1 2 -1 2 0 0 Z " transform="translate(418 85)" class="colorF8B685 svgShape"></path><path fill="#1d9628" d="M0 0 C0.99 0.33 1.98 0.66 3 1 C0.375 5.875 0.375 5.875 -3 7 C-1.125 1.125 -1.125 1.125 0 0 Z " transform="translate(490 169)" class="colorF8B482 svgShape"></path></svg></g></svg>