<svg id="SvgjsSvg1001" width="288" height="288" xmlns="http://www.w3.org/2000/svg" version="1.1" xmlns:xlink="http://www.w3.org/1999/xlink" xmlns:svgjs="http://svgjs.com/svgjs"><defs id="SvgjsDefs1002"></defs><g id="SvgjsG1008"><svg xmlns="http://www.w3.org/2000/svg" viewBox="0 0 400 282.051" width="288" height="288"><path fill="#000000" fill-rule="evenodd" d="M132.008 21.542 C 131.931 21.618,129.839 21.709,127.359 21.744 C 123.022 21.805,120.967 21.954,116.079 22.562 C 113.660 22.863,113.527 22.884,108.604 23.707 C 103.324 24.590,95.853 26.684,91.678 28.450 C 91.291 28.614,90.085 29.089,88.999 29.506 C 86.358 30.519,78.024 34.214,77.292 34.695 C 77.059 34.849,76.271 35.292,75.541 35.680 C 74.810 36.069,73.668 36.773,73.002 37.245 C 72.336 37.716,71.283 38.428,70.663 38.827 C 64.304 42.912,59.923 46.376,55.051 51.173 C 48.564 57.560,47.736 58.441,45.091 61.777 C 42.487 65.060,38.034 71.057,36.976 72.704 C 34.033 77.285,27.852 89.009,26.376 92.807 C 24.547 97.516,24.295 98.230,22.988 102.398 C 22.283 104.647,21.523 107.059,21.300 107.757 C 20.724 109.556,18.683 117.833,18.483 119.182 C 18.390 119.803,18.129 121.389,17.902 122.708 C 16.720 129.568,16.687 130.066,16.659 141.614 C 16.630 153.694,16.593 153.178,18.180 163.047 C 19.231 169.589,22.291 180.266,25.536 188.717 C 26.102 190.190,26.751 191.893,26.978 192.499 C 27.375 193.561,31.748 201.688,33.257 204.169 C 36.407 209.346,39.693 214.013,41.829 216.340 C 42.338 216.895,43.510 218.300,44.434 219.464 C 47.815 223.720,56.887 232.067,62.200 235.809 C 65.566 238.179,72.179 242.595,72.364 242.595 C 72.426 242.595,73.230 243.082,74.150 243.677 C 76.151 244.969,79.965 246.861,86.460 249.781 C 95.937 254.043,97.201 254.503,104.372 256.309 C 105.846 256.680,107.750 257.175,108.604 257.409 C 112.790 258.555,123.499 260.301,127.927 260.559 C 129.323 260.641,130.973 260.830,131.594 260.980 C 133.421 261.421,144.551 261.601,146.968 261.229 C 148.131 261.049,150.725 260.783,152.732 260.637 C 154.738 260.491,156.582 260.308,156.829 260.229 C 157.076 260.151,158.290 259.960,159.528 259.805 C 163.468 259.312,171.382 257.693,177.292 256.171 C 180.655 255.305,184.337 254.108,186.460 253.190 C 187.779 252.619,189.619 251.857,190.550 251.497 C 192.721 250.655,198.643 247.954,201.551 246.479 C 202.793 245.849,204.189 245.145,204.654 244.913 C 207.175 243.659,220.234 234.712,220.892 233.788 C 220.979 233.666,221.487 233.244,222.020 232.850 C 223.992 231.396,231.151 224.317,233.243 221.754 C 235.202 219.353,235.944 218.391,238.600 214.810 C 247.348 203.012,254.910 183.845,256.850 168.547 C 257.086 166.685,257.394 164.781,257.536 164.316 C 258.175 162.206,258.655 145.571,258.127 143.808 C 257.472 141.625,259.309 141.749,227.690 141.749 L 199.668 141.749 199.148 142.391 C 198.860 142.747,198.543 143.753,198.437 144.648 C 197.978 148.509,196.224 155.665,194.272 161.636 C 189.978 174.773,179.786 188.052,169.111 194.419 C 163.554 197.733,155.776 200.971,152.045 201.523 C 151.502 201.603,149.725 201.920,148.096 202.227 C 138.435 204.046,125.476 202.957,116.079 199.536 C 114.993 199.141,113.413 198.566,112.567 198.258 C 106.222 195.950,98.931 191.439,93.830 186.667 C 92.298 185.234,90.960 183.999,90.856 183.921 C 90.269 183.482,87.163 179.600,86.343 178.279 C 85.813 177.426,84.784 175.831,84.057 174.735 C 80.901 169.982,78.040 162.365,76.857 155.571 C 76.614 154.175,76.222 151.953,75.987 150.635 C 75.451 147.630,75.325 130.299,75.820 127.645 C 78.338 114.144,80.993 107.991,88.506 98.237 C 91.501 94.348,98.059 89.045,102.821 86.659 C 105.066 85.534,108.851 83.886,109.732 83.649 C 110.120 83.545,110.818 83.283,111.283 83.069 C 116.399 80.709,127.300 79.242,139.562 79.264 C 140.542 79.266,140.964 79.083,141.878 78.257 C 143.024 77.221,143.253 76.867,146.279 71.450 C 148.551 67.381,151.782 62.574,154.677 58.956 C 154.863 58.724,155.326 58.089,155.707 57.546 C 156.088 57.003,156.530 56.418,156.690 56.246 C 156.851 56.074,157.995 54.678,159.234 53.143 C 161.271 50.620,165.086 46.689,170.522 41.512 C 172.567 39.564,177.928 35.498,181.368 33.286 C 183.506 31.912,184.485 30.458,183.822 29.644 C 182.652 28.208,170.569 24.862,162.341 23.697 C 161.100 23.521,158.434 23.138,156.417 22.846 C 152.998 22.350,151.604 22.217,146.121 21.869 C 142.449 21.635,132.153 21.397,132.008 21.542 M249.224 21.720 C 243.855 21.939,238.464 22.416,236.551 22.844 C 235.368 23.108,234.630 23.235,232.440 23.552 C 222.136 25.044,203.002 31.705,194.358 36.810 C 193.505 37.314,191.347 38.590,189.563 39.645 C 179.106 45.827,169.576 53.891,163.072 62.059 C 161.651 63.843,160.333 65.494,160.142 65.726 C 158.938 67.197,157.134 69.662,156.737 70.381 C 156.480 70.846,155.744 72.052,155.102 73.061 C 153.065 76.260,147.405 87.755,146.352 90.832 C 142.300 102.669,139.792 114.529,139.075 125.247 C 138.935 127.341,138.674 129.944,138.496 131.030 C 137.970 134.220,138.014 138.567,138.579 139.430 C 139.467 140.785,139.955 140.805,169.597 140.709 C 201.543 140.606,197.957 141.052,198.687 137.094 C 200.415 127.721,201.908 122.991,205.988 113.963 C 209.973 105.147,215.825 97.524,222.961 91.854 C 225.733 89.652,228.882 87.447,229.256 87.447 C 229.384 87.447,229.930 87.150,230.470 86.787 C 231.011 86.423,232.087 85.894,232.863 85.610 C 233.639 85.326,234.406 84.994,234.569 84.873 C 234.961 84.580,239.068 83.071,241.890 82.184 C 244.297 81.426,247.356 80.732,251.505 80.000 C 254.866 79.408,264.173 79.380,267.317 79.952 C 268.537 80.174,270.233 80.442,271.086 80.548 C 271.939 80.654,273.590 81.036,274.753 81.398 C 275.917 81.759,277.630 82.248,278.561 82.483 C 280.641 83.008,285.182 84.555,285.594 84.879 C 285.760 85.009,286.594 85.344,287.447 85.622 C 296.776 88.666,312.335 102.956,314.677 110.630 C 314.787 110.989,315.037 111.474,315.233 111.707 C 315.429 111.939,315.680 112.447,315.790 112.835 C 315.901 113.223,316.354 114.365,316.796 115.374 C 319.011 120.417,321.088 128.116,321.435 132.572 C 321.538 133.885,321.691 135.072,321.776 135.210 C 322.263 135.997,321.896 152.861,321.319 156.277 C 320.532 160.926,318.490 167.642,316.945 170.663 C 316.588 171.361,316.199 172.250,316.081 172.638 C 315.682 173.943,312.318 179.819,310.807 181.851 C 305.182 189.411,298.564 194.362,287.870 199.010 C 286.458 199.624,280.892 201.351,279.690 201.549 C 279.069 201.650,277.292 201.971,275.740 202.261 C 271.970 202.967,270.583 203.080,263.470 203.267 C 255.185 203.485,255.235 203.460,252.324 208.886 C 250.484 212.316,242.938 223.547,240.687 226.204 C 239.688 227.384,238.093 229.302,237.142 230.465 C 232.113 236.619,224.388 243.600,217.163 248.519 C 212.047 252.002,212.183 253.893,217.630 255.006 C 218.561 255.197,219.547 255.470,219.821 255.615 C 220.094 255.759,221.903 256.182,223.840 256.554 C 225.777 256.926,227.476 257.301,227.616 257.387 C 227.755 257.473,229.691 257.858,231.918 258.241 C 234.144 258.625,236.220 258.991,236.530 259.056 C 236.841 259.121,238.300 259.323,239.774 259.505 C 241.248 259.687,243.279 259.966,244.288 260.126 C 245.296 260.285,247.898 260.532,250.071 260.675 C 252.243 260.818,254.718 261.052,255.571 261.194 C 257.566 261.528,267.931 261.532,269.958 261.200 C 270.811 261.060,273.096 260.818,275.035 260.662 C 284.359 259.913,302.435 256.050,306.547 253.928 C 307.200 253.590,307.867 253.315,308.029 253.315 C 308.399 253.315,312.973 251.146,319.160 248.039 C 328.563 243.316,336.362 237.435,345.439 228.225 C 348.215 225.408,350.604 222.887,350.745 222.623 C 350.887 222.359,351.465 221.636,352.028 221.016 C 353.796 219.069,355.911 216.137,359.861 210.155 C 361.346 207.906,362.820 205.690,363.136 205.233 C 364.882 202.705,370.297 191.220,373.185 183.921 C 375.638 177.720,378.609 165.040,379.544 156.782 C 379.778 154.720,380.108 152.017,380.279 150.776 C 381.761 139.977,379.533 118.728,375.397 104.231 C 372.980 95.757,366.745 82.169,362.265 75.609 C 355.492 65.693,346.073 55.172,339.774 50.486 C 338.843 49.794,337.236 48.528,336.203 47.674 C 334.063 45.906,332.438 44.724,330.606 43.602 C 317.439 35.541,316.545 35.065,308.039 31.596 C 288.122 23.472,272.143 20.788,249.224 21.720 " class="colorf38434 svgShape"></path><path fill="#ffffff" fill-rule="evenodd" d="M124.207 15.513 C 120.712 15.626,118.367 15.819,118.134 16.012 C 117.926 16.185,115.919 16.529,113.673 16.778 C 111.428 17.027,109.337 17.344,109.027 17.484 C 108.717 17.623,107.384 17.947,106.065 18.204 C 104.746 18.461,103.413 18.776,103.103 18.905 C 102.793 19.033,101.587 19.355,100.423 19.619 C 99.260 19.884,98.187 20.211,98.039 20.346 C 97.892 20.482,97.456 20.592,97.070 20.592 C 96.264 20.592,92.939 21.352,92.102 21.728 C 91.791 21.867,90.776 22.192,89.845 22.449 C 88.914 22.707,88.022 23.021,87.863 23.147 C 87.704 23.273,86.943 23.587,86.171 23.844 C 84.928 24.258,79.541 26.726,78.420 27.395 C 78.188 27.534,77.553 27.865,77.010 28.131 C 76.467 28.396,75.687 28.839,75.277 29.114 C 74.867 29.389,73.217 30.270,71.610 31.070 C 70.003 31.871,68.329 32.824,67.891 33.189 C 67.452 33.553,66.969 33.850,66.816 33.850 C 66.664 33.850,65.516 34.644,64.266 35.614 C 63.016 36.583,61.786 37.504,61.532 37.659 C 61.279 37.814,60.437 38.451,59.661 39.076 C 57.327 40.954,56.110 41.872,55.476 42.231 C 54.579 42.740,42.575 54.775,42.312 55.430 C 42.187 55.740,40.804 57.472,39.237 59.277 C 37.671 61.083,36.389 62.686,36.389 62.839 C 36.389 62.993,36.195 63.279,35.959 63.476 C 35.211 64.096,33.777 66.339,31.893 69.834 C 31.637 70.308,30.836 71.464,30.114 72.403 C 27.969 75.191,23.622 83.570,22.017 88.011 C 21.602 89.160,21.068 90.412,20.152 92.384 C 18.309 96.352,17.732 97.735,17.578 98.546 C 17.486 99.036,17.324 99.563,17.219 99.718 C 17.114 99.873,16.799 100.762,16.519 101.693 C 16.238 102.623,15.918 103.575,15.807 103.808 C 15.696 104.041,15.385 105.183,15.115 106.347 C 14.846 107.511,14.519 108.717,14.388 109.027 C 14.258 109.337,13.938 110.733,13.677 112.130 C 13.416 113.526,13.092 114.922,12.957 115.233 C 12.658 115.921,12.149 120.203,11.935 123.836 C 11.848 125.310,11.667 126.655,11.532 126.826 C 10.285 128.397,10.354 156.515,11.607 157.289 C 11.739 157.371,11.848 158.146,11.848 159.012 C 11.848 161.017,12.653 167.845,12.957 168.416 C 13.084 168.654,13.408 170.178,13.678 171.801 C 13.948 173.425,14.266 174.880,14.386 175.035 C 14.505 175.190,14.816 176.266,15.076 177.425 C 15.337 178.585,15.653 179.664,15.778 179.823 C 15.903 179.982,16.163 180.811,16.356 181.664 C 16.549 182.518,16.863 183.470,17.053 183.780 C 17.244 184.090,17.487 184.697,17.593 185.127 C 17.699 185.558,18.100 186.597,18.484 187.437 C 18.868 188.276,19.182 189.111,19.182 189.292 C 19.182 189.473,19.486 190.211,19.857 190.932 C 20.823 192.809,22.285 195.971,22.285 196.183 C 22.285 196.921,26.490 205.276,27.718 206.976 C 28.303 207.788,28.894 208.740,29.031 209.092 C 29.167 209.444,29.927 210.595,30.719 211.649 C 31.510 212.703,32.158 213.675,32.158 213.808 C 32.158 213.941,32.983 215.081,33.992 216.340 C 35.000 217.599,35.825 218.742,35.825 218.879 C 35.825 220.180,54.406 238.646,55.714 238.646 C 55.824 238.646,56.929 239.485,58.168 240.511 C 59.408 241.536,60.697 242.520,61.033 242.697 C 61.368 242.874,62.622 243.757,63.819 244.660 C 66.220 246.472,67.142 247.019,71.086 248.969 C 72.560 249.698,74.159 250.593,74.639 250.958 C 75.119 251.323,75.592 251.622,75.691 251.622 C 75.790 251.622,76.539 252.049,77.357 252.570 C 78.175 253.092,79.161 253.616,79.549 253.735 C 79.937 253.855,80.591 254.190,81.003 254.480 C 81.414 254.770,81.898 255.007,82.076 255.007 C 82.255 255.007,83.135 255.371,84.033 255.817 C 84.930 256.262,86.161 256.789,86.767 256.988 C 87.374 257.187,88.124 257.511,88.434 257.709 C 88.745 257.907,89.506 258.158,90.127 258.267 C 90.748 258.376,91.573 258.629,91.961 258.829 C 92.348 259.028,93.491 259.407,94.499 259.669 C 95.508 259.931,96.460 260.239,96.615 260.353 C 96.770 260.467,97.722 260.784,98.731 261.058 C 99.739 261.332,100.691 261.655,100.846 261.776 C 101.001 261.898,102.080 262.215,103.244 262.481 C 104.408 262.748,105.740 263.126,106.206 263.322 C 106.671 263.518,107.877 263.834,108.886 264.024 C 109.894 264.214,110.846 264.464,111.001 264.580 C 111.157 264.695,112.680 265.012,114.386 265.282 C 116.093 265.553,117.743 265.876,118.054 266.000 C 118.774 266.289,124.064 266.893,127.362 267.063 C 128.759 267.134,130.079 267.339,130.297 267.518 C 130.887 268.001,149.628 267.974,150.113 267.489 C 150.339 267.263,151.331 267.135,152.877 267.131 C 154.204 267.128,156.305 266.942,157.546 266.718 C 158.787 266.494,160.344 266.306,161.005 266.300 C 161.667 266.295,162.428 266.173,162.698 266.030 C 162.967 265.887,164.520 265.561,166.150 265.306 C 167.779 265.051,169.365 264.736,169.676 264.605 C 169.986 264.475,171.192 264.159,172.355 263.903 C 173.519 263.648,174.725 263.330,175.035 263.196 C 175.346 263.063,176.486 262.743,177.569 262.487 C 178.652 262.230,179.667 261.922,179.825 261.802 C 179.983 261.682,180.938 261.359,181.946 261.086 C 182.955 260.812,183.907 260.493,184.062 260.377 C 184.217 260.260,185.233 259.940,186.319 259.665 C 187.405 259.390,188.809 258.927,189.440 258.637 C 190.071 258.347,190.750 258.110,190.949 258.110 C 191.148 258.110,191.711 257.934,192.200 257.720 C 192.689 257.505,193.533 257.175,194.076 256.985 C 194.964 256.675,197.953 255.345,199.224 254.695 C 199.496 254.556,199.940 254.337,200.212 254.209 C 200.933 253.866,202.509 253.051,203.877 252.314 C 205.234 251.583,205.264 251.605,205.644 253.611 C 206.226 256.677,208.678 258.806,212.694 259.729 C 213.702 259.961,214.663 260.260,214.829 260.392 C 214.995 260.525,216.009 260.837,217.083 261.086 C 218.157 261.335,219.164 261.642,219.321 261.768 C 219.477 261.895,220.621 262.209,221.862 262.466 C 223.103 262.724,224.309 263.034,224.542 263.156 C 224.774 263.277,226.107 263.600,227.504 263.874 C 228.900 264.148,230.296 264.477,230.606 264.606 C 230.917 264.734,232.694 265.053,234.556 265.314 C 236.417 265.576,238.131 265.862,238.364 265.951 C 238.999 266.193,245.135 266.837,248.660 267.032 C 250.367 267.127,251.941 267.347,252.159 267.523 C 252.753 268.002,272.340 267.970,272.821 267.489 C 273.032 267.279,273.917 267.137,275.021 267.138 C 277.177 267.140,284.508 266.325,285.331 265.992 C 285.642 265.867,287.228 265.553,288.858 265.296 C 290.487 265.038,292.073 264.724,292.384 264.597 C 292.694 264.471,293.900 264.152,295.063 263.887 C 296.227 263.623,297.306 263.308,297.461 263.187 C 297.616 263.066,298.505 262.813,299.436 262.626 C 300.367 262.439,301.509 262.120,301.975 261.919 C 302.440 261.717,303.519 261.333,304.372 261.065 C 305.226 260.797,306.241 260.420,306.629 260.226 C 307.017 260.033,308.032 259.705,308.886 259.499 C 309.739 259.292,310.691 258.973,311.001 258.791 C 311.312 258.608,311.942 258.371,312.403 258.264 C 313.877 257.920,321.450 254.252,323.836 252.727 C 324.535 252.281,325.367 251.798,325.686 251.655 C 326.005 251.512,326.640 251.092,327.096 250.721 C 328.207 249.819,329.356 249.090,330.889 248.317 C 333.401 247.050,335.115 245.828,337.824 243.371 C 338.466 242.789,339.136 242.313,339.312 242.313 C 339.489 242.313,339.633 242.123,339.633 241.890 C 339.633 241.657,339.799 241.467,340.002 241.467 C 341.361 241.467,356.992 225.804,357.752 223.680 C 357.838 223.438,358.811 222.147,359.914 220.809 C 361.016 219.471,361.918 218.290,361.918 218.183 C 361.918 218.077,362.680 217.036,363.611 215.870 C 364.542 214.704,365.303 213.630,365.303 213.485 C 365.303 213.340,365.609 212.816,365.982 212.323 C 366.355 211.829,367.203 210.346,367.865 209.027 C 368.528 207.708,369.462 205.994,369.940 205.219 C 370.419 204.443,370.966 203.554,371.156 203.244 C 371.596 202.526,374.993 195.643,376.098 193.230 C 377.118 191.003,377.260 190.651,377.864 188.858 C 378.125 188.082,378.444 187.193,378.572 186.883 C 378.700 186.573,378.999 185.513,379.235 184.529 C 379.472 183.544,379.778 182.592,379.916 182.413 C 380.053 182.234,380.390 181.262,380.663 180.254 C 380.937 179.245,381.257 178.293,381.374 178.138 C 381.491 177.983,381.805 176.904,382.071 175.740 C 382.336 174.577,382.668 173.371,382.808 173.061 C 382.948 172.750,383.269 171.544,383.522 170.381 C 383.775 169.217,384.095 168.145,384.233 167.997 C 384.372 167.850,384.485 167.349,384.485 166.885 C 384.485 165.648,385.334 160.733,385.650 160.138 C 385.799 159.858,385.983 158.334,386.058 156.753 C 386.210 153.540,386.704 150.069,387.067 149.661 C 387.377 149.314,387.381 132.096,387.071 131.905 C 386.748 131.705,386.219 127.679,386.052 124.141 C 385.976 122.525,385.782 121.072,385.622 120.912 C 385.462 120.752,385.331 120.320,385.331 119.952 C 385.331 119.057,384.491 114.532,384.193 113.822 C 384.063 113.512,383.748 112.180,383.493 110.862 C 383.238 109.544,382.934 108.338,382.817 108.182 C 382.700 108.026,382.443 107.137,382.246 106.206 C 382.050 105.275,381.719 104.133,381.510 103.667 C 381.302 103.202,380.919 102.059,380.659 101.128 C 380.399 100.197,380.090 99.309,379.972 99.154 C 379.855 98.999,379.545 97.983,379.284 96.897 C 379.022 95.811,378.562 94.384,378.262 93.727 C 377.961 93.069,377.715 92.390,377.715 92.219 C 377.715 92.047,377.546 91.570,377.339 91.158 C 376.235 88.961,375.458 87.271,375.458 87.067 C 375.458 86.702,373.476 82.839,373.036 82.347 C 372.817 82.102,372.638 81.751,372.638 81.566 C 372.638 81.381,372.293 80.693,371.872 80.037 C 370.817 78.390,370.231 77.363,369.510 75.894 C 369.170 75.202,368.466 74.029,367.944 73.287 C 367.422 72.545,366.996 71.831,366.996 71.699 C 366.996 71.568,366.488 70.751,365.867 69.884 C 365.247 69.018,364.739 68.218,364.739 68.107 C 364.739 67.838,362.017 64.522,360.095 62.450 C 359.247 61.537,358.549 60.677,358.544 60.539 C 358.526 60.115,355.416 56.682,352.895 54.304 C 351.578 53.061,348.940 50.490,347.033 48.590 C 345.126 46.689,343.441 45.134,343.288 45.134 C 343.135 45.134,341.898 44.277,340.538 43.230 C 339.179 42.183,337.625 41.081,337.087 40.781 C 336.548 40.482,335.528 39.752,334.820 39.159 C 334.111 38.567,333.436 38.082,333.319 38.082 C 333.201 38.082,332.305 37.511,331.326 36.812 C 330.348 36.114,329.449 35.543,329.328 35.543 C 329.207 35.543,328.715 35.246,328.235 34.882 C 326.871 33.849,324.490 32.543,321.922 31.418 C 321.257 31.127,319.706 30.381,318.474 29.760 C 312.057 26.526,309.683 25.388,309.356 25.388 C 309.260 25.388,308.358 25.011,307.352 24.550 C 306.345 24.089,305.168 23.627,304.735 23.523 C 304.303 23.420,303.822 23.241,303.667 23.126 C 303.512 23.011,302.623 22.707,301.693 22.449 C 300.762 22.192,299.746 21.873,299.436 21.740 C 298.655 21.406,294.972 20.592,294.244 20.592 C 293.915 20.592,293.425 20.473,293.156 20.327 C 292.886 20.181,291.714 19.854,290.550 19.600 C 289.386 19.346,288.181 19.033,287.870 18.903 C 287.560 18.773,286.178 18.456,284.798 18.197 C 283.419 17.938,282.086 17.615,281.836 17.478 C 281.587 17.341,279.479 17.024,277.154 16.773 C 274.828 16.523,272.764 16.184,272.567 16.020 C 271.554 15.180,241.872 15.177,240.825 16.017 C 240.496 16.281,237.849 16.690,233.862 17.092 C 232.860 17.194,231.844 17.376,231.605 17.498 C 230.973 17.819,229.123 18.268,227.504 18.493 C 226.728 18.601,225.966 18.775,225.811 18.881 C 225.656 18.986,224.513 19.301,223.272 19.581 C 222.031 19.861,220.762 20.186,220.451 20.303 C 220.141 20.419,218.747 20.732,217.353 20.997 C 215.959 21.263,214.689 21.579,214.532 21.701 C 214.374 21.823,213.357 22.148,212.271 22.423 C 211.185 22.698,209.780 23.160,209.149 23.450 C 208.519 23.740,207.840 23.977,207.641 23.977 C 207.443 23.977,206.943 24.147,206.532 24.354 C 204.364 25.443,202.646 26.234,202.451 26.234 C 202.229 26.234,198.497 27.940,197.179 28.643 C 191.406 31.724,191.255 31.754,191.255 29.814 C 191.255 28.245,189.778 25.174,188.853 24.822 C 188.498 24.687,188.131 24.453,188.037 24.301 C 187.752 23.840,185.574 22.905,183.639 22.415 C 182.630 22.159,181.597 21.842,181.342 21.711 C 180.735 21.398,176.473 20.592,175.423 20.592 C 174.973 20.592,174.384 20.477,174.115 20.335 C 173.845 20.194,172.546 19.856,171.227 19.585 C 169.908 19.313,168.709 18.984,168.561 18.854 C 168.414 18.724,167.941 18.618,167.509 18.618 C 166.495 18.618,162.227 17.805,161.495 17.472 C 161.185 17.331,158.837 17.013,156.277 16.765 C 153.717 16.517,151.455 16.175,151.250 16.004 C 150.533 15.409,135.681 15.139,124.207 15.513 M146.121 21.869 C 151.604 22.217,152.998 22.350,156.417 22.846 C 158.434 23.138,161.100 23.521,162.341 23.697 C 170.569 24.862,182.652 28.208,183.822 29.644 C 184.485 30.458,183.506 31.912,181.368 33.286 C 177.928 35.498,172.567 39.564,170.522 41.512 C 165.086 46.689,161.271 50.620,159.234 53.143 C 157.995 54.678,156.851 56.074,156.690 56.246 C 156.530 56.418,156.088 57.003,155.707 57.546 C 155.326 58.089,154.863 58.724,154.677 58.956 C 151.782 62.574,148.551 67.381,146.279 71.450 C 143.253 76.867,143.024 77.221,141.878 78.257 C 140.964 79.083,140.542 79.266,139.562 79.264 C 127.300 79.242,116.399 80.709,111.283 83.069 C 110.818 83.283,110.120 83.545,109.732 83.649 C 108.851 83.886,105.066 85.534,102.821 86.659 C 99.479 88.333,97.955 89.429,92.215 94.288 C 84.381 100.919,78.619 112.642,75.820 127.645 C 75.325 130.299,75.451 147.630,75.987 150.635 C 76.222 151.953,76.614 154.175,76.857 155.571 C 78.040 162.365,80.901 169.982,84.057 174.735 C 84.784 175.831,85.813 177.426,86.343 178.279 C 87.163 179.600,90.269 183.482,90.856 183.921 C 90.960 183.999,92.298 185.234,93.830 186.667 C 98.931 191.439,106.222 195.950,112.567 198.258 C 113.413 198.566,114.993 199.141,116.079 199.536 C 125.476 202.957,138.435 204.046,148.096 202.227 C 149.725 201.920,151.502 201.603,152.045 201.523 C 155.776 200.971,163.554 197.733,169.111 194.419 C 179.786 188.052,189.978 174.773,194.272 161.636 C 196.224 155.665,197.978 148.509,198.437 144.648 C 198.543 143.753,198.860 142.747,199.148 142.391 L 199.668 141.749 227.690 141.749 C 259.309 141.749,257.472 141.625,258.127 143.808 C 258.655 145.571,258.175 162.206,257.536 164.316 C 257.394 164.781,257.086 166.685,256.850 168.547 C 255.527 178.979,251.489 191.606,245.743 203.275 C 244.653 205.490,240.306 212.509,238.600 214.810 C 235.944 218.391,235.202 219.353,233.243 221.754 C 231.151 224.317,223.992 231.396,222.020 232.850 C 221.487 233.244,220.979 233.666,220.892 233.788 C 220.234 234.712,207.175 243.659,204.654 244.913 C 204.189 245.145,202.793 245.849,201.551 246.479 C 198.643 247.954,192.721 250.655,190.550 251.497 C 189.619 251.857,187.779 252.619,186.460 253.190 C 184.337 254.108,180.655 255.305,177.292 256.171 C 171.382 257.693,163.468 259.312,159.528 259.805 C 158.290 259.960,157.076 260.151,156.829 260.229 C 156.582 260.308,154.738 260.491,152.732 260.637 C 150.725 260.783,148.131 261.049,146.968 261.229 C 144.551 261.601,133.421 261.421,131.594 260.980 C 130.973 260.830,129.323 260.641,127.927 260.559 C 123.499 260.301,112.790 258.555,108.604 257.409 C 107.750 257.175,105.846 256.680,104.372 256.309 C 97.201 254.503,95.937 254.043,86.460 249.781 C 79.965 246.861,76.151 244.969,74.150 243.677 C 73.230 243.082,72.426 242.595,72.364 242.595 C 72.179 242.595,65.566 238.179,62.200 235.809 C 56.887 232.067,47.815 223.720,44.434 219.464 C 43.510 218.300,42.338 216.895,41.829 216.340 C 39.693 214.013,36.407 209.346,33.257 204.169 C 31.748 201.688,27.375 193.561,26.978 192.499 C 26.751 191.893,26.102 190.190,25.536 188.717 C 22.291 180.266,19.231 169.589,18.180 163.047 C 16.593 153.178,16.630 153.694,16.659 141.614 C 16.687 130.066,16.720 129.568,17.902 122.708 C 18.129 121.389,18.390 119.803,18.483 119.182 C 18.683 117.833,20.724 109.556,21.300 107.757 C 21.523 107.059,22.283 104.647,22.988 102.398 C 24.295 98.230,24.547 97.516,26.376 92.807 C 27.852 89.009,34.033 77.285,36.976 72.704 C 38.034 71.057,42.487 65.060,45.091 61.777 C 47.736 58.441,48.564 57.560,55.051 51.173 C 59.923 46.376,64.304 42.912,70.663 38.827 C 71.283 38.428,72.336 37.716,73.002 37.245 C 73.668 36.773,74.810 36.069,75.541 35.680 C 76.271 35.292,77.059 34.849,77.292 34.695 C 78.024 34.214,86.358 30.519,88.999 29.506 C 90.085 29.089,91.291 28.614,91.678 28.450 C 95.853 26.684,103.324 24.590,108.604 23.707 C 113.527 22.884,113.660 22.863,116.079 22.562 C 120.967 21.954,123.022 21.805,127.359 21.744 C 129.839 21.709,131.931 21.618,132.008 21.542 C 132.153 21.397,142.449 21.635,146.121 21.869 M267.842 21.874 C 280.743 22.583,293.520 25.673,308.039 31.596 C 316.545 35.065,317.439 35.541,330.606 43.602 C 332.438 44.724,334.063 45.906,336.203 47.674 C 337.236 48.528,338.843 49.794,339.774 50.486 C 344.678 54.134,354.446 64.554,359.135 71.138 C 363.738 77.603,364.218 78.400,367.678 85.331 C 374.032 98.063,376.548 105.882,379.021 120.592 C 380.338 128.426,381.038 145.241,380.279 150.776 C 380.108 152.017,379.778 154.720,379.544 156.782 C 378.609 165.040,375.638 177.720,373.185 183.921 C 370.297 191.220,364.882 202.705,363.136 205.233 C 362.820 205.690,361.346 207.906,359.861 210.155 C 355.911 216.137,353.796 219.069,352.028 221.016 C 351.465 221.636,350.887 222.359,350.745 222.623 C 350.264 223.517,340.404 233.337,337.954 235.362 C 328.725 242.993,324.360 245.703,311.355 251.875 C 309.687 252.667,308.190 253.315,308.029 253.315 C 307.867 253.315,307.200 253.590,306.547 253.928 C 304.377 255.048,296.996 257.000,289.140 258.532 C 281.619 259.998,279.712 260.287,275.035 260.662 C 273.096 260.818,270.811 261.060,269.958 261.200 C 267.931 261.532,257.566 261.528,255.571 261.194 C 254.718 261.052,252.243 260.818,250.071 260.675 C 247.898 260.532,245.296 260.285,244.288 260.126 C 243.279 259.966,241.248 259.687,239.774 259.505 C 238.300 259.323,236.841 259.121,236.530 259.056 C 236.220 258.991,234.144 258.625,231.918 258.241 C 229.691 257.858,227.755 257.473,227.616 257.387 C 227.476 257.301,225.777 256.926,223.840 256.554 C 221.903 256.182,220.094 255.759,219.821 255.615 C 219.547 255.470,218.561 255.197,217.630 255.006 C 212.183 253.893,212.047 252.002,217.163 248.519 C 224.388 243.600,232.113 236.619,237.142 230.465 C 238.093 229.302,239.688 227.384,240.687 226.204 C 242.938 223.547,250.484 212.316,252.324 208.886 C 255.235 203.460,255.185 203.485,263.470 203.267 C 270.583 203.080,271.970 202.967,275.740 202.261 C 277.292 201.971,279.069 201.650,279.690 201.549 C 280.892 201.351,286.458 199.624,287.870 199.010 C 298.564 194.362,305.182 189.411,310.807 181.851 C 312.318 179.819,315.682 173.943,316.081 172.638 C 316.199 172.250,316.588 171.361,316.945 170.663 C 318.490 167.642,320.532 160.926,321.319 156.277 C 321.896 152.861,322.263 135.997,321.776 135.210 C 321.691 135.072,321.538 133.885,321.435 132.572 C 321.088 128.116,319.011 120.417,316.796 115.374 C 316.354 114.365,315.901 113.223,315.790 112.835 C 315.680 112.447,315.429 111.939,315.233 111.707 C 315.037 111.474,314.787 110.989,314.677 110.630 C 312.335 102.956,296.776 88.666,287.447 85.622 C 286.594 85.344,285.760 85.009,285.594 84.879 C 285.182 84.555,280.641 83.008,278.561 82.483 C 277.630 82.248,275.917 81.759,274.753 81.398 C 273.590 81.036,271.939 80.654,271.086 80.548 C 270.233 80.442,268.537 80.174,267.317 79.952 C 259.252 78.484,247.564 79.969,237.249 83.773 C 235.937 84.257,234.731 84.752,234.569 84.873 C 234.406 84.994,233.639 85.326,232.863 85.610 C 232.087 85.894,231.011 86.423,230.470 86.787 C 229.930 87.150,229.384 87.447,229.256 87.447 C 228.882 87.447,225.733 89.652,222.961 91.854 C 215.825 97.524,209.973 105.147,205.988 113.963 C 201.908 122.991,200.415 127.721,198.687 137.094 C 197.957 141.052,201.543 140.606,169.597 140.709 C 139.955 140.805,139.467 140.785,138.579 139.430 C 138.014 138.567,137.970 134.220,138.496 131.030 C 138.674 129.944,138.935 127.341,139.075 125.247 C 139.792 114.529,142.300 102.669,146.352 90.832 C 147.405 87.755,153.065 76.260,155.102 73.061 C 155.744 72.052,156.480 70.846,156.737 70.381 C 157.134 69.662,158.938 67.197,160.142 65.726 C 160.333 65.494,161.651 63.843,163.072 62.059 C 169.576 53.891,179.106 45.827,189.563 39.645 C 191.347 38.590,193.505 37.314,194.358 36.810 C 203.002 31.705,222.136 25.044,232.440 23.552 C 234.630 23.235,235.368 23.108,236.551 22.844 C 241.447 21.750,256.887 21.272,267.842 21.874 M141.507 86.463 C 141.597 86.698,141.542 87.047,141.384 87.239 C 141.226 87.431,140.877 88.350,140.607 89.281 C 140.338 90.212,139.965 91.227,139.779 91.537 C 139.593 91.848,139.270 92.673,139.063 93.371 C 138.855 94.069,138.599 94.767,138.494 94.922 C 138.389 95.078,138.075 96.093,137.795 97.179 C 137.516 98.265,137.181 99.274,137.050 99.422 C 136.919 99.569,136.812 99.990,136.812 100.356 C 136.812 101.056,136.024 103.748,135.678 104.231 C 135.567 104.386,135.388 105.339,135.282 106.347 C 135.090 108.162,134.708 109.910,134.265 111.001 C 134.034 111.569,133.920 112.486,133.404 117.897 C 133.250 119.517,133.018 120.977,132.889 121.141 C 132.760 121.305,132.576 123.533,132.480 126.093 C 132.385 128.653,132.223 132.534,132.122 134.718 C 131.852 140.515,132.761 143.573,135.281 145.349 C 137.855 147.164,136.401 147.072,165.162 147.239 L 191.396 147.391 191.317 149.781 C 191.267 151.291,191.084 152.405,190.822 152.806 C 190.593 153.155,190.226 154.213,190.006 155.156 C 189.786 156.100,189.482 157.024,189.332 157.209 C 189.182 157.394,188.836 158.371,188.563 159.379 C 188.289 160.388,187.895 161.413,187.686 161.658 C 187.477 161.903,187.306 162.214,187.306 162.350 C 187.306 162.597,184.383 168.744,183.889 169.535 C 183.744 169.767,183.354 170.529,183.024 171.227 C 182.693 171.925,181.935 173.157,181.338 173.965 C 180.742 174.773,180.254 175.515,180.254 175.613 C 180.254 176.593,169.250 187.588,168.269 187.588 C 168.176 187.588,167.261 188.223,166.236 188.999 C 165.211 189.774,164.217 190.409,164.026 190.409 C 163.836 190.409,163.536 190.583,163.360 190.795 C 163.184 191.007,162.311 191.405,161.421 191.680 C 160.531 191.954,159.676 192.267,159.520 192.374 C 159.365 192.481,158.604 192.791,157.828 193.062 C 157.052 193.334,156.164 193.656,155.853 193.777 C 154.465 194.323,152.425 194.925,151.971 194.924 C 151.697 194.923,151.253 195.041,150.983 195.187 C 150.217 195.600,145.517 196.333,143.629 196.333 C 142.691 196.333,141.845 196.460,141.749 196.615 C 141.516 196.993,132.956 196.993,132.722 196.615 C 132.626 196.460,131.952 196.333,131.225 196.333 C 129.768 196.334,125.152 195.588,124.260 195.208 C 123.949 195.076,122.680 194.747,121.439 194.477 C 120.197 194.206,119.055 193.891,118.900 193.776 C 118.745 193.661,118.047 193.416,117.348 193.232 C 116.650 193.048,115.698 192.731,115.233 192.529 C 114.767 192.327,113.688 191.948,112.835 191.687 C 110.701 191.034,108.356 189.838,106.215 188.311 C 105.224 187.603,104.336 187.024,104.244 187.024 C 104.001 187.024,99.730 183.740,99.302 183.225 C 99.105 182.987,98.804 182.793,98.633 182.793 C 98.262 182.793,94.499 179.111,94.499 178.748 C 94.499 178.609,93.766 177.654,92.869 176.624 C 90.683 174.115,89.704 172.763,89.704 172.250 C 89.704 172.016,89.577 171.746,89.422 171.650 C 89.060 171.426,86.037 165.151,86.037 164.623 C 86.037 164.528,85.794 163.913,85.498 163.255 C 85.201 162.597,84.750 161.361,84.495 160.508 C 84.240 159.654,83.928 158.762,83.801 158.524 C 83.674 158.286,83.485 157.651,83.382 157.113 C 83.063 155.452,82.610 153.623,82.372 153.032 C 81.102 149.889,81.100 126.719,82.369 125.106 C 82.491 124.951,82.744 124.062,82.931 123.131 C 83.119 122.200,83.442 121.058,83.649 120.592 C 83.857 120.127,84.226 119.056,84.468 118.212 C 84.938 116.580,85.303 115.744,87.500 111.283 C 89.977 106.254,90.389 105.608,93.056 102.561 C 95.891 99.323,100.520 95.139,102.116 94.372 C 103.753 93.586,105.287 92.701,106.678 91.743 C 107.403 91.243,108.324 90.710,108.724 90.558 C 109.124 90.406,110.018 90.023,110.711 89.708 C 111.404 89.392,112.641 88.996,113.460 88.828 C 114.280 88.660,115.161 88.414,115.418 88.281 C 115.675 88.148,117.008 87.837,118.380 87.590 C 119.752 87.343,121.128 87.014,121.439 86.860 C 122.925 86.124,141.238 85.762,141.507 86.463 M269.817 86.805 C 270.127 86.985,271.650 87.338,273.202 87.589 C 274.753 87.840,276.276 88.149,276.587 88.276 C 276.897 88.403,277.849 88.664,278.702 88.856 C 280.148 89.182,280.746 89.394,283.155 90.433 C 283.664 90.652,284.226 90.832,284.402 90.832 C 284.578 90.832,284.923 91.012,285.168 91.231 C 285.413 91.450,286.540 92.116,287.673 92.712 C 288.806 93.307,290.212 94.048,290.798 94.358 C 291.384 94.669,292.488 95.367,293.252 95.911 C 294.015 96.454,294.999 97.084,295.438 97.310 C 297.036 98.133,305.501 106.769,305.501 107.575 C 305.501 107.661,306.135 108.581,306.911 109.618 C 307.687 110.656,308.322 111.623,308.322 111.767 C 308.322 111.910,308.685 112.559,309.130 113.207 C 310.196 114.763,311.293 117.214,311.550 118.618 C 311.664 119.238,311.860 119.873,311.986 120.028 C 312.112 120.183,312.426 121.199,312.684 122.285 C 312.942 123.371,313.261 124.513,313.393 124.824 C 313.713 125.580,314.528 129.985,314.528 130.963 C 314.528 131.392,314.645 131.963,314.788 132.232 C 315.869 134.265,315.896 153.311,314.821 155.853 C 314.690 156.164,314.431 157.370,314.246 158.533 C 314.060 159.697,313.742 160.994,313.539 161.415 C 313.336 161.836,313.079 162.725,312.968 163.390 C 312.857 164.054,312.532 165.106,312.246 165.726 C 311.961 166.347,311.592 167.471,311.427 168.224 C 311.090 169.760,309.822 172.212,308.487 173.907 C 307.998 174.528,307.460 175.353,307.292 175.740 C 307.124 176.128,306.398 177.167,305.679 178.049 C 304.960 178.930,304.372 179.778,304.372 179.933 C 304.372 180.320,298.844 185.896,298.460 185.896 C 298.290 185.896,297.052 186.784,295.710 187.870 C 294.367 188.956,293.162 189.845,293.032 189.845 C 292.902 189.845,292.291 190.164,291.673 190.553 C 291.056 190.943,289.948 191.461,289.211 191.704 C 288.473 191.948,287.354 192.391,286.723 192.688 C 286.093 192.986,285.394 193.231,285.172 193.232 C 284.949 193.233,284.421 193.414,283.999 193.634 C 283.576 193.855,282.306 194.247,281.178 194.505 C 280.049 194.763,278.872 195.086,278.561 195.223 C 277.762 195.575,273.139 196.331,271.777 196.332 C 271.149 196.332,270.493 196.474,270.321 196.647 C 270.118 196.849,267.561 197.030,263.141 197.153 C 255.868 197.357,255.216 197.268,255.800 196.157 C 255.952 195.866,256.298 195.056,256.568 194.358 C 256.838 193.660,257.214 192.708,257.404 192.243 C 257.594 191.777,257.905 190.762,258.097 189.986 C 258.288 189.210,258.552 188.322,258.683 188.011 C 258.815 187.701,259.132 186.368,259.389 185.049 C 259.645 183.731,259.961 182.398,260.089 182.087 C 260.218 181.777,260.533 180.571,260.790 179.408 C 261.046 178.244,261.365 177.038,261.498 176.728 C 261.630 176.417,261.944 174.958,262.194 173.484 C 262.444 172.010,262.731 170.614,262.831 170.381 C 263.099 169.757,263.726 165.237,263.926 162.482 C 264.022 161.164,264.244 159.907,264.420 159.689 C 264.955 159.026,265.035 142.458,264.509 141.273 C 264.281 140.759,264.012 140.148,263.912 139.915 C 263.353 138.618,262.173 137.094,261.728 137.094 C 261.594 137.094,260.947 136.745,260.291 136.319 L 259.097 135.543 232.878 135.465 C 203.142 135.377,205.518 135.589,206.067 133.077 C 206.245 132.261,206.459 131.403,206.543 131.171 C 206.627 130.938,206.925 129.732,207.205 128.491 C 207.485 127.250,207.799 126.107,207.903 125.952 C 208.007 125.797,208.316 124.845,208.590 123.836 C 208.864 122.828,209.184 121.876,209.302 121.721 C 209.420 121.566,209.677 120.740,209.872 119.887 C 210.067 119.034,210.396 118.141,210.603 117.902 C 210.810 117.664,211.180 117.029,211.424 116.492 C 211.669 115.954,212.238 114.944,212.690 114.245 C 213.141 113.547,213.777 112.468,214.103 111.848 C 215.196 109.769,215.662 109.039,217.285 106.856 C 218.173 105.661,218.900 104.539,218.900 104.362 C 218.900 103.935,225.106 97.779,226.036 97.284 C 226.435 97.071,227.712 96.167,228.874 95.275 C 230.037 94.383,231.074 93.653,231.179 93.653 C 231.285 93.653,231.954 93.259,232.667 92.778 C 233.380 92.297,234.223 91.790,234.541 91.651 C 234.860 91.512,235.310 91.275,235.543 91.124 C 236.447 90.539,239.702 89.208,241.044 88.874 C 241.819 88.681,242.708 88.418,243.018 88.290 C 243.329 88.161,244.788 87.846,246.262 87.588 C 247.736 87.331,249.196 87.007,249.506 86.868 C 250.857 86.265,268.790 86.209,269.817 86.805 " class="color925930 svgShape"></path></svg></g></svg>