<svg xmlns="http://www.w3.org/2000/svg" xmlns:xlink="http://www.w3.org/1999/xlink" id="svg" version="1.1" width="400" height="400" viewBox="0, 0, 400,400 undefined"><g id="svgg"><path id="path0" d="M269.157 6.664 C 249.850 11.332,233.751 27.521,228.783 47.265 C 222.155 73.607,240.314 112.994,281.646 161.926 C 282.639 163.102,302.151 138.175,312.135 122.977 C 332.436 92.072,340.118 67.581,335.717 47.800 C 329.194 18.479,298.572 -0.446,269.157 6.664 M185.558 11.386 C 115.779 18.188,49.474 71.716,27.576 138.926 L 24.375 148.749 12.280 148.992 L 0.185 149.234 23.210 182.031 C 35.874 200.069,46.565 214.923,46.969 215.039 C 47.556 215.209,92.450 151.970,93.508 149.482 C 93.669 149.105,87.469 148.796,79.730 148.796 L 65.661 148.796 67.849 142.981 C 85.050 97.285,137.731 56.048,184.678 51.533 C 206.748 49.411,213.452 45.013,214.273 32.117 C 215.245 16.856,205.039 9.488,185.558 11.386 M291.223 42.494 C 305.811 49.763,305.829 69.923,291.253 77.316 C 276.944 84.573,261.710 74.386,262.738 58.246 C 263.625 44.311,278.435 36.121,291.223 42.494 M349.178 96.937 C 336.388 103.422,335.833 110.320,346.056 135.769 C 370.539 196.714,364.295 250.442,327.363 296.618 C 264.896 374.721,141.490 371.779,85.339 290.848 C 82.932 287.378,80.534 284.523,80.010 284.502 C 78.921 284.458,45.398 298.324,44.464 299.204 C 41.217 302.264,74.116 340.070,91.623 353.397 C 218.064 449.648,400.091 359.765,399.993 201.129 C 399.973 169.432,386.769 121.056,372.772 101.399 C 368.142 94.897,357.258 92.839,349.178 96.937 M146.743 125.955 C 128.154 132.982,112.942 138.928,112.939 139.168 C 112.936 139.409,127.114 145.206,144.446 152.050 L 175.959 164.494 209.861 152.335 C 228.508 145.648,244.684 139.829,245.810 139.406 C 247.552 138.750,246.055 137.962,235.744 134.104 C 229.083 131.612,213.937 125.885,202.086 121.377 L 180.540 113.180 146.743 125.955 M100.777 147.372 C 97.111 153.493,92.598 162.033,92.897 162.284 C 93.557 162.837,160.424 188.224,160.605 187.990 C 160.709 187.856,161.894 185.777,163.239 183.370 C 164.583 180.963,166.628 177.317,167.784 175.267 L 169.884 171.541 167.874 170.740 C 166.769 170.299,151.589 164.245,134.141 157.286 L 102.417 144.634 100.777 147.372 M251.204 146.712 C 248.074 147.925,231.729 153.847,214.880 159.871 C 198.031 165.896,183.983 171.087,183.664 171.408 C 182.372 172.704,195.524 189.919,197.374 189.354 C 204.486 187.183,267.834 162.314,267.834 161.694 C 267.834 160.172,258.633 144.423,257.768 144.464 C 257.287 144.487,254.333 145.498,251.204 146.712 M104.365 207.606 L 104.595 237.532 137.418 250.070 C 155.470 256.965,171.127 262.841,172.210 263.127 L 174.179 263.647 174.134 224.821 C 174.090 188.027,174.010 186.109,172.602 188.161 C 164.246 200.339,166.336 200.359,132.819 187.782 C 118.014 182.226,105.503 177.681,105.018 177.681 C 104.436 177.681,104.213 187.914,104.365 207.606 M236.778 182.572 C 230.048 185.239,224.370 187.592,224.160 187.802 C 223.950 188.012,229.752 188.184,237.053 188.184 L 250.328 188.184 250.328 182.932 C 250.328 180.044,250.033 177.690,249.672 177.702 C 249.311 177.714,243.509 179.906,236.778 182.572 M180.306 223.552 L 180.306 263.647 182.408 263.120 C 183.564 262.830,190.643 260.194,198.140 257.262 L 211.771 251.933 212.012 222.465 C 212.145 206.258,212.205 192.883,212.144 192.742 C 212.084 192.602,208.039 194.079,203.155 196.025 C 191.777 200.558,192.659 200.757,186.826 192.341 C 184.073 188.370,181.480 184.746,181.064 184.289 C 180.636 183.820,180.306 200.923,180.306 223.552 M219.392 195.036 C 216.838 197.858,217.214 307.165,219.785 309.492 C 221.605 311.140,297.418 312.680,303.440 311.191 C 308.238 310.005,308.096 311.347,308.096 266.958 L 308.096 225.944 294.456 225.663 L 280.815 225.383 278.263 222.524 L 275.711 219.666 275.711 206.551 L 275.711 193.435 248.276 193.435 C 222.808 193.435,220.736 193.550,219.392 195.036 M280.963 205.812 C 280.963 221.702,279.931 220.686,295.756 220.375 L 308.122 220.131 294.542 206.575 L 280.963 193.019 280.963 205.812 M272.648 224.070 C 274.313 229.318,274.070 229.374,250.921 229.118 L 229.759 228.884 229.471 226.851 C 228.822 222.268,228.576 222.319,251.117 222.319 C 271.323 222.319,272.112 222.384,272.648 224.070 M272.400 240.331 C 274.622 245.207,273.589 245.488,252.422 245.762 C 229.476 246.058,229.322 246.033,229.322 242.069 C 229.322 238.110,228.689 238.222,251.441 238.143 L 271.372 238.074 272.400 240.331 M296.718 258.216 L 296.718 261.728 263.239 261.498 L 229.759 261.269 229.471 259.236 C 228.806 254.537,227.551 254.705,263.430 254.705 L 296.718 254.705 296.718 258.216 M296.280 274.398 L 296.280 277.899 264.770 278.143 C 228.449 278.425,229.322 278.515,229.322 274.455 C 229.322 270.393,227.684 270.568,263.895 270.742 L 296.280 270.897 296.280 274.398 M296.718 290.601 L 296.718 294.113 263.239 293.883 L 229.759 293.654 229.471 291.621 C 228.806 286.922,227.551 287.090,263.430 287.090 L 296.718 287.090 296.718 290.601 " stroke="none" fill="#257574" fill-rule="evenodd"/></g></svg>