<svg width="36" height="20" viewBox="0 0 36 20" fill="none" xmlns="http://www.w3.org/2000/svg">
<g clip-path="url(#clip0_18_17)">
<path fill-rule="evenodd" clip-rule="evenodd" d="M27.6925 5.69308C27.6861 5.69954 27.6173 5.71282 27.5395 5.72273C27.1081 5.7775 26.8346 6.00193 26.6882 6.42158C26.6147 6.63227 26.5557 8.24157 26.6093 8.57217C26.6524 8.83735 26.6631 8.88511 26.685 8.90722C26.6976 8.91986 26.7078 8.94715 26.7078 8.9678C26.7078 9.14575 27.1304 9.52565 27.4302 9.61725C27.7044 9.70095 29.332 9.70977 29.6171 9.62908C30.0431 9.50845 30.374 9.15111 30.4476 8.73219C30.5159 8.34346 30.4793 6.94331 30.3888 6.48162C30.3221 6.14166 30.0457 5.851 29.7061 5.76385C29.445 5.69681 27.7477 5.63713 27.6925 5.69308Z" fill="#F6C33A"/>
<path fill-rule="evenodd" clip-rule="evenodd" d="M7.21355 0.0620282C5.46494 0.072581 5.22662 0.0777664 5.08604 0.107969C4.99892 0.126618 4.87427 0.150908 4.80893 0.161916C4.74359 0.172923 4.6724 0.189389 4.65062 0.198577C4.61237 0.21468 4.48475 0.244246 4.30826 0.277905C4.26146 0.286821 4.21286 0.304469 4.20035 0.317114C4.18784 0.329759 4.15778 0.34013 4.13366 0.34013C4.10954 0.34013 4.06013 0.355141 4.02386 0.373517C3.90668 0.432922 3.88949 0.4402 3.86717 0.4402C3.85502 0.4402 3.81263 0.454391 3.77285 0.471676C3.73316 0.488961 3.67394 0.514524 3.64127 0.528352C3.50861 0.584664 3.11279 0.791989 3.09326 0.815278C3.08174 0.829015 3.05672 0.840296 3.03764 0.840296C3.01847 0.840296 2.99183 0.853759 2.97824 0.870316C2.96465 0.886782 2.94665 0.900337 2.93819 0.900337C2.92973 0.900337 2.87969 0.92963 2.82686 0.965564C2.77403 1.00141 2.68637 1.05999 2.63192 1.09565C2.53292 1.16061 2.40827 1.2524 2.19263 1.41933C2.0345 1.54178 1.5224 2.06214 1.40405 2.22062C1.35068 2.29212 1.28669 2.37309 1.26185 2.40047C1.2371 2.42785 1.21685 2.45805 1.21685 2.46761C1.21685 2.47716 1.19147 2.51773 1.16051 2.55785C1.05665 2.69231 0.880434 2.96295 0.880434 2.98797C0.880434 3.00161 0.870444 3.0229 0.858294 3.03509C0.825444 3.0683 0.679284 3.35386 0.578844 3.58092C0.556974 3.6305 0.526734 3.69482 0.511794 3.72411C0.496854 3.75332 0.484614 3.79553 0.484614 3.81791C0.484614 3.84029 0.476334 3.86376 0.466344 3.87003C0.456264 3.87631 0.441774 3.91033 0.434124 3.94563C0.426474 3.98093 0.413514 4.0235 0.405324 4.04042C0.397224 4.05725 0.375534 4.12512 0.357174 4.19107C0.338724 4.25712 0.314244 4.33818 0.302724 4.37111C0.291114 4.40413 0.277344 4.46263 0.271944 4.5012C0.266544 4.53968 0.254934 4.58044 0.246024 4.59172C0.237114 4.603 0.224154 4.66149 0.217224 4.72172C0.210204 4.78194 0.196794 4.84926 0.187254 4.87127C0.110304 5.04976 0.0891541 6.07556 0.0900541 9.59246C0.0910441 13.644 0.110844 14.5566 0.205164 14.9137C0.216864 14.9577 0.226584 15.0315 0.226854 15.0775C0.227034 15.1237 0.236214 15.167 0.247104 15.1738C0.257994 15.1806 0.266904 15.2129 0.266904 15.2457C0.266904 15.2783 0.280224 15.3374 0.296514 15.3769C0.312894 15.4164 0.326214 15.4662 0.326214 15.4876C0.326214 15.5089 0.338814 15.5685 0.354114 15.6201C0.369414 15.6717 0.397314 15.7679 0.416034 15.834C0.434754 15.8999 0.457794 15.9625 0.467334 15.973C0.476784 15.9834 0.484614 16.0161 0.484614 16.0456C0.484614 16.075 0.497934 16.1103 0.514224 16.124C0.530604 16.1377 0.543924 16.161 0.543924 16.1758C0.543924 16.2714 0.909864 16.9703 1.10219 17.2423C1.15979 17.3237 1.21829 17.4114 1.23224 17.4372C1.4117 17.7697 2.16293 18.5352 2.59376 18.8247C2.61833 18.8411 2.68592 18.8874 2.74397 18.9273C2.80211 18.9673 2.90039 19.0277 2.96249 19.0617C3.13106 19.1536 3.16337 19.1726 3.19595 19.1979C3.22583 19.2211 3.51077 19.3656 3.62147 19.4136C3.65414 19.4278 3.71201 19.4534 3.75008 19.4705C3.78824 19.4875 3.86393 19.5165 3.91829 19.5349C3.97274 19.5534 4.03097 19.5755 4.04762 19.5841C4.06427 19.5928 4.10648 19.6061 4.1414 19.6139C4.17632 19.6216 4.20989 19.6362 4.2161 19.6464C4.22231 19.6565 4.24373 19.6649 4.26353 19.6649C4.28342 19.6649 4.32527 19.6784 4.35641 19.6947C4.38755 19.7112 4.45046 19.7247 4.496 19.7248C4.54163 19.7249 4.58402 19.733 4.59005 19.743C4.59617 19.753 4.64792 19.7675 4.70507 19.7753C4.76213 19.7831 4.81784 19.7964 4.82873 19.8049C4.83962 19.8135 4.89749 19.8264 4.95734 19.8337C5.01719 19.841 5.10629 19.8553 5.15525 19.8654C5.51534 19.9398 12.9216 19.9581 13.8238 19.8868C14.064 19.8678 14.3148 19.83 14.3589 19.8063C14.3757 19.7972 14.438 19.7832 14.4974 19.7752C14.5569 19.7671 14.6144 19.7534 14.6253 19.7448C14.6362 19.7362 14.6852 19.725 14.7341 19.7199C14.8149 19.7115 14.8901 19.6896 15.0013 19.642C15.0231 19.6327 15.0988 19.607 15.1696 19.5848C15.2403 19.5627 15.316 19.5368 15.3378 19.5272C15.3595 19.5175 15.4174 19.4937 15.4665 19.4741C15.6187 19.4135 15.9554 19.2409 16.0701 19.1646C16.1027 19.143 16.1428 19.1188 16.1591 19.111C16.3046 19.0415 16.5414 18.8755 16.8256 18.6442C16.8929 18.5894 16.9534 18.5446 16.9604 18.5446C17.0053 18.5446 17.782 17.7362 17.782 17.6894C17.782 17.6783 17.7966 17.6571 17.8143 17.6422C17.858 17.6055 18.0591 17.3294 18.0591 17.306C18.0591 17.2958 18.0801 17.262 18.1057 17.2309C18.1315 17.1997 18.1676 17.1472 18.1863 17.1142C18.2049 17.0813 18.2412 17.0182 18.267 16.9742C18.2927 16.9302 18.3344 16.8537 18.3596 16.8042C18.3848 16.7547 18.4166 16.7023 18.4302 16.6877C18.4438 16.6732 18.4549 16.6475 18.4549 16.6308C18.4549 16.6141 18.4708 16.5764 18.4904 16.5472C18.5098 16.518 18.56 16.4221 18.6019 16.334C18.6436 16.2461 18.6916 16.147 18.7084 16.114C18.7595 16.0136 18.7666 15.9989 18.8335 15.854C18.9166 15.674 19.0271 15.4762 19.1603 15.2689C19.2187 15.1783 19.2664 15.1001 19.2664 15.0952C19.2664 15.0903 19.3064 15.0271 19.3554 14.9548C19.4043 14.8825 19.4445 14.8191 19.4445 14.8139C19.4445 14.805 19.5794 14.5937 19.7038 14.408C19.7353 14.361 19.7611 14.3183 19.7611 14.3132C19.7611 14.3081 19.8011 14.2448 19.8502 14.1725C19.8991 14.1001 19.9392 14.0362 19.9392 14.0304C19.9392 14.0244 19.9593 13.9914 19.9837 13.9569C20.0082 13.9225 20.0372 13.8793 20.0481 13.8611C20.059 13.843 20.1079 13.7625 20.1569 13.6826C20.2059 13.6026 20.2682 13.4992 20.2954 13.4528C20.3227 13.4063 20.3939 13.2904 20.4538 13.1952C20.5137 13.1 20.5715 13.0065 20.5824 12.9873C20.5933 12.9681 20.6223 12.9242 20.6468 12.8897C20.6713 12.8553 20.6912 12.8229 20.6912 12.8179C20.6912 12.8129 20.7514 12.7148 20.8249 12.5999C21.004 12.3199 20.9952 12.334 21.1019 12.1584C21.1537 12.0734 21.2095 11.9788 21.2262 11.9484C21.2428 11.9179 21.2969 11.8299 21.3464 11.753C21.4849 11.5373 21.5119 11.4945 21.5226 11.4729C21.528 11.4618 21.5767 11.3853 21.6308 11.3028C21.6849 11.2203 21.7384 11.1373 21.7495 11.1182C21.7909 11.048 21.9293 10.8272 22.0507 10.6378C22.1194 10.5307 22.1756 10.4378 22.1756 10.4314C22.1756 10.4251 22.1973 10.3913 22.2238 10.3562C22.2502 10.3211 22.2814 10.2699 22.293 10.2425C22.3046 10.2151 22.322 10.179 22.3318 10.1626C22.4576 9.9488 22.4689 9.31236 22.4242 5.00027C22.4146 4.07408 22.4171 3.90315 22.441 3.87003C22.5121 3.77178 30.3489 3.81909 30.6561 3.91961C30.7971 3.96574 31.0791 4.09383 31.1212 4.13085C31.1375 4.14523 31.1658 4.16014 31.1842 4.16406C31.2419 4.17634 31.6438 4.54505 31.7458 4.67932C31.9807 4.98881 32.1503 5.30385 32.1503 5.43075C32.1503 5.45723 32.1603 5.50417 32.1725 5.5351C32.2327 5.68757 32.2357 5.97522 32.2473 12.8469L32.2592 19.8223L32.3173 19.8836L32.3754 19.9449H34.0665H35.7575L35.8441 19.8574L35.9307 19.7699L35.9238 12.7007C35.9176 6.30309 35.9139 5.60578 35.8846 5.36134C35.8509 5.08124 35.8075 4.81323 35.7873 4.7612C35.7655 4.70507 35.7293 4.55142 35.7124 4.44352C35.7032 4.3843 35.6861 4.32626 35.6745 4.31452C35.6628 4.3027 35.6534 4.26849 35.6534 4.23829C35.6534 4.20818 35.6455 4.17852 35.6357 4.17243C35.6261 4.16642 35.6123 4.13667 35.6051 4.10629C35.5564 3.89933 35.2657 3.25597 35.11 3.0108C34.6447 2.27738 34.3708 1.94706 33.8559 1.49848C33.6609 1.32845 33.1492 0.960288 33.1081 0.960288C33.1001 0.960288 33.0795 0.948007 33.0623 0.932905C32.9659 0.84821 32.2256 0.478863 32.0968 0.451025C32.0617 0.443566 31.9884 0.415455 31.9335 0.3888C31.8787 0.362055 31.8199 0.34013 31.8028 0.34013C31.7857 0.34013 31.7522 0.329487 31.7285 0.316477C31.7047 0.303468 31.6496 0.28582 31.6061 0.277268C31.4218 0.241062 31.3067 0.214225 31.2697 0.19885C31.2479 0.189753 31.1811 0.176289 31.1212 0.168921C31.0613 0.161552 31.0034 0.149816 30.9925 0.142812C30.8854 0.0740365 30.8351 0.0733997 24.7741 0.0665768L18.8524 0.0599358L18.8101 0.104967C18.7332 0.186933 18.7319 0.216408 18.7313 2.01684C18.7308 3.5812 18.7273 3.78643 18.7016 3.75213C18.6857 3.73085 18.6727 3.69928 18.6728 3.68218C18.673 3.66498 18.6249 3.5519 18.566 3.43091C18.5071 3.30992 18.4535 3.19739 18.4468 3.18083C18.4402 3.16436 18.4192 3.12643 18.4003 3.09659C18.3395 3.00079 18.1584 2.71205 18.133 2.67084C18.1196 2.64882 18.0854 2.59933 18.057 2.56076C18.0287 2.52219 18.0019 2.48034 17.9976 2.4677C17.9674 2.37873 17.2297 1.58372 17.0843 1.48347C17.0598 1.46655 16.9871 1.40496 16.9227 1.34656C16.8582 1.28815 16.7971 1.24039 16.7869 1.24039C16.7768 1.24039 16.7347 1.21337 16.6934 1.18035C16.6522 1.14733 16.6116 1.12031 16.6032 1.12031C16.5947 1.12031 16.5729 1.10675 16.5547 1.0902C16.4213 0.968111 15.4898 0.479955 15.3278 0.447205C15.2947 0.440473 15.2629 0.427191 15.257 0.417639C15.2512 0.407996 15.2326 0.400172 15.2159 0.400172C15.1992 0.400172 15.1574 0.388164 15.1231 0.373426C14.9728 0.309109 14.887 0.283364 14.6748 0.239151C14.6149 0.226688 14.5526 0.211223 14.5362 0.204764C14.5199 0.198305 14.4532 0.18193 14.3878 0.168193C14.3225 0.154547 14.2022 0.128529 14.1206 0.110425C13.8599 0.0524761 11.5066 0.0360101 7.21355 0.0620282ZM13.7446 3.87531C13.8153 3.88668 13.8999 3.90724 13.9326 3.92098C13.9653 3.93472 14.0098 3.95336 14.0316 3.96246C14.0534 3.97147 14.113 3.9974 14.1641 4.01996C14.2152 4.04261 14.2633 4.06108 14.2712 4.06108C14.2789 4.06108 14.3509 4.10611 14.4312 4.16105C14.5114 4.21609 14.5826 4.26112 14.5894 4.26112C14.719 4.26112 15.2811 5.03584 15.3208 5.26937C15.3266 5.30348 15.3447 5.36716 15.361 5.41101C15.3867 5.48033 15.3915 5.97822 15.3978 9.28188C15.4018 11.3671 15.4108 13.1497 15.4179 13.2433C15.4351 13.4724 15.3911 14.4109 15.3588 14.5022C15.345 14.5414 15.3224 14.6097 15.3087 14.6537C15.2714 14.7733 15.2366 14.8546 15.1348 15.0592C15.0524 15.2248 14.995 15.3102 14.8474 15.4864C14.7788 15.5682 14.5091 15.7862 14.3883 15.8575C14.2873 15.917 14.0948 16.004 14.0638 16.004C14.045 16.004 14.0191 16.0146 14.0063 16.0275C13.9935 16.0405 13.9405 16.058 13.8886 16.0666C13.8366 16.0751 13.7495 16.0911 13.6951 16.1019C13.5568 16.1294 5.63207 16.1294 5.51147 16.1019C5.46251 16.0907 5.38241 16.0741 5.33336 16.065C4.90496 15.986 4.36001 15.5466 4.03772 15.0204C4.00901 14.9736 3.92657 14.8034 3.90362 14.7437C3.89309 14.7162 3.87266 14.6666 3.85835 14.6337C3.84395 14.6007 3.82775 14.5466 3.82226 14.5136C3.81677 14.4806 3.80264 14.4131 3.79067 14.3636C3.75926 14.2328 3.77069 5.61888 3.80237 5.57949C3.81488 5.56403 3.82919 5.5109 3.83423 5.46141C3.84242 5.38099 3.85835 5.32422 3.9101 5.19131C3.91874 5.1693 3.93161 5.13027 3.93872 5.10462C3.95159 5.05849 4.02512 4.92686 4.12466 4.77193C4.31636 4.47336 5.01953 3.94108 5.22212 3.94108C5.23706 3.94108 5.28134 3.92753 5.3204 3.91106C5.35955 3.89451 5.43407 3.8804 5.48609 3.87959C5.5382 3.87886 5.59859 3.87049 5.62037 3.86094C5.6786 3.83565 13.5845 3.84957 13.7446 3.87531ZM26.594 7.33189C26.5942 7.37592 26.5983 7.39157 26.6031 7.36664C26.6077 7.34172 26.6076 7.30578 26.6026 7.28659C26.5977 7.26748 26.5938 7.28786 26.594 7.33189Z" fill="#040404"/>
</g>
<defs>
<clipPath id="clip0_18_17">
<rect width="36" height="20" fill="white"/>
</clipPath>
</defs>
</svg>
