<svg id="svg" version="1.1" xmlns="http://www.w3.org/2000/svg" xmlns:xlink="http://www.w3.org/1999/xlink" width="400" height="219.84732824427482" viewBox="0, 0, 400,219.84732824427482"><g id="svgg"><path id="path0" d="M128.244 0.236 C 128.346 0.542,128.718 0.542,128.820 0.236 C 128.863 0.106,128.734 -0.000,128.532 -0.000 C 128.331 -0.000,128.201 0.106,128.244 0.236 M10.467 4.364 C 10.390 4.487,10.435 4.654,10.566 4.735 C 10.904 4.944,11.123 4.657,10.840 4.375 C 10.682 4.217,10.559 4.213,10.467 4.364 M307.807 62.580 C 307.736 62.651,306.972 62.797,306.108 62.906 C 301.314 63.508,298.275 65.975,296.649 70.588 C 295.832 72.904,295.176 90.594,295.772 94.228 C 296.251 97.143,296.370 97.668,296.613 97.911 C 296.753 98.050,296.866 98.350,296.866 98.577 C 296.866 100.533,301.562 104.709,304.893 105.716 C 307.940 106.636,326.024 106.733,329.192 105.846 C 333.925 104.520,337.602 100.592,338.420 95.987 C 339.179 91.714,338.772 76.323,337.766 71.248 C 337.025 67.511,333.954 64.316,330.181 63.358 C 327.280 62.621,308.421 61.965,307.807 62.580 M153.304 83.332 C 153.399 83.615,153.700 83.666,153.727 83.403 C 153.736 83.315,153.625 83.204,153.480 83.156 C 153.335 83.107,153.256 83.186,153.304 83.332 M277.398 115.019 C 277.189 115.357,277.476 115.576,277.758 115.293 C 277.916 115.135,277.920 115.012,277.769 114.920 C 277.646 114.843,277.479 114.888,277.398 115.019 M306.542 166.465 C 306.542 166.586,306.690 166.685,306.872 166.685 C 307.053 166.685,307.202 166.586,307.202 166.465 C 307.202 166.344,307.053 166.245,306.872 166.245 C 306.690 166.245,306.542 166.344,306.542 166.465 M321.935 173.172 C 321.935 173.353,322.034 173.502,322.155 173.502 C 322.276 173.502,322.375 173.353,322.375 173.172 C 322.375 172.991,322.276 172.842,322.155 172.842 C 322.034 172.842,321.935 172.991,321.935 173.172 " stroke="none" fill="#f6c33a" fill-rule="evenodd"></path><path id="path1" d="M80.264 0.681 C 60.835 0.797,58.187 0.854,56.625 1.186 C 55.657 1.391,54.272 1.658,53.546 1.779 C 52.820 1.900,52.029 2.081,51.787 2.182 C 51.362 2.359,49.944 2.684,47.983 3.054 C 47.463 3.152,46.923 3.346,46.784 3.485 C 46.645 3.624,46.311 3.738,46.043 3.738 C 45.775 3.738,45.226 3.903,44.823 4.105 C 43.521 4.758,43.330 4.838,43.082 4.838 C 42.947 4.838,42.476 4.994,42.034 5.184 C 41.593 5.374,40.935 5.655,40.572 5.807 C 39.098 6.426,34.700 8.705,34.483 8.961 C 34.355 9.112,34.077 9.236,33.865 9.236 C 33.652 9.236,33.356 9.384,33.205 9.566 C 33.054 9.747,32.854 9.896,32.760 9.896 C 32.666 9.896,32.110 10.218,31.523 10.613 C 30.936 11.007,29.962 11.651,29.357 12.043 C 28.257 12.757,26.872 13.766,24.476 15.601 C 22.719 16.947,17.029 22.667,15.714 24.409 C 15.121 25.195,14.410 26.085,14.134 26.386 C 13.859 26.687,13.634 27.019,13.634 27.124 C 13.634 27.229,13.352 27.675,13.008 28.116 C 11.854 29.594,9.896 32.569,9.896 32.844 C 9.896 32.994,9.785 33.228,9.650 33.362 C 9.285 33.727,7.661 36.866,6.545 39.362 C 6.302 39.907,5.966 40.614,5.800 40.936 C 5.634 41.257,5.498 41.721,5.498 41.967 C 5.498 42.213,5.406 42.471,5.295 42.540 C 5.183 42.609,5.022 42.983,4.937 43.371 C 4.852 43.759,4.708 44.227,4.617 44.413 C 4.527 44.598,4.286 45.344,4.082 46.069 C 3.877 46.795,3.605 47.686,3.477 48.048 C 3.348 48.411,3.195 49.054,3.135 49.478 C 3.075 49.901,2.946 50.349,2.847 50.473 C 2.748 50.597,2.604 51.240,2.527 51.902 C 2.449 52.564,2.300 53.304,2.194 53.546 C 1.339 55.508,1.104 66.784,1.114 105.443 C 1.125 149.979,1.345 160.011,2.393 163.936 C 2.523 164.420,2.631 165.231,2.634 165.737 C 2.636 166.244,2.738 166.720,2.859 166.795 C 2.980 166.870,3.079 167.225,3.079 167.585 C 3.079 167.944,3.227 168.594,3.408 169.028 C 3.590 169.462,3.738 170.009,3.738 170.244 C 3.738 170.479,3.878 171.134,4.048 171.701 C 4.218 172.268,4.528 173.326,4.736 174.052 C 4.944 174.777,5.200 175.465,5.306 175.580 C 5.411 175.695,5.498 176.054,5.498 176.378 C 5.498 176.702,5.646 177.090,5.827 177.240 C 6.009 177.391,6.157 177.647,6.157 177.809 C 6.157 178.860,10.223 186.543,12.360 189.533 C 13.000 190.428,13.650 191.392,13.805 191.675 C 15.799 195.330,24.146 203.745,28.933 206.927 C 29.206 207.108,29.957 207.616,30.602 208.055 C 31.248 208.495,32.340 209.159,33.030 209.532 C 34.903 210.543,35.262 210.751,35.624 211.029 C 35.956 211.284,39.122 212.873,40.352 213.401 C 40.715 213.557,41.358 213.838,41.781 214.026 C 42.205 214.213,43.046 214.532,43.650 214.734 C 44.255 214.937,44.902 215.180,45.087 215.275 C 45.272 215.370,45.741 215.517,46.129 215.602 C 46.517 215.687,46.890 215.848,46.959 215.960 C 47.028 216.071,47.266 216.163,47.486 216.163 C 47.707 216.163,48.172 216.311,48.518 216.491 C 48.864 216.672,49.563 216.820,50.069 216.821 C 50.576 216.822,51.047 216.912,51.114 217.022 C 51.182 217.131,51.757 217.291,52.392 217.376 C 53.026 217.462,53.645 217.608,53.766 217.702 C 53.887 217.796,54.530 217.938,55.195 218.019 C 55.860 218.099,56.850 218.256,57.394 218.367 C 61.395 219.185,143.687 219.386,153.711 218.602 C 156.380 218.393,159.167 217.978,159.657 217.717 C 159.843 217.617,160.536 217.463,161.196 217.375 C 161.857 217.286,162.496 217.136,162.617 217.041 C 162.738 216.947,163.282 216.824,163.826 216.768 C 164.723 216.675,165.559 216.434,166.795 215.911 C 167.037 215.809,167.878 215.526,168.664 215.283 C 169.450 215.040,170.291 214.755,170.533 214.649 C 170.775 214.543,171.418 214.281,171.963 214.066 C 173.655 213.400,177.396 211.502,178.670 210.664 C 179.032 210.426,179.478 210.160,179.659 210.074 C 181.276 209.310,183.907 207.486,187.065 204.943 C 187.812 204.341,188.485 203.848,188.562 203.848 C 189.061 203.848,197.691 194.962,197.691 194.448 C 197.691 194.326,197.853 194.092,198.050 193.929 C 198.536 193.525,200.770 190.490,200.770 190.233 C 200.770 190.121,201.003 189.749,201.288 189.407 C 201.574 189.065,201.976 188.488,202.183 188.125 C 202.390 187.763,202.793 187.070,203.080 186.586 C 203.366 186.102,203.829 185.261,204.109 184.717 C 204.389 184.173,204.742 183.597,204.893 183.437 C 205.044 183.277,205.168 182.995,205.168 182.811 C 205.168 182.627,205.345 182.213,205.562 181.892 C 205.778 181.571,206.336 180.517,206.801 179.549 C 207.265 178.582,207.798 177.493,207.985 177.130 C 208.552 176.027,208.631 175.865,209.374 174.272 C 210.298 172.293,211.526 170.119,213.006 167.841 C 213.654 166.845,214.184 165.985,214.184 165.931 C 214.184 165.877,214.629 165.183,215.173 164.388 C 215.717 163.593,216.163 162.896,216.163 162.839 C 216.163 162.741,217.662 160.419,219.044 158.377 C 219.395 157.860,219.681 157.391,219.681 157.335 C 219.681 157.279,220.126 156.583,220.671 155.788 C 221.215 154.993,221.660 154.290,221.660 154.226 C 221.660 154.161,221.883 153.798,222.155 153.419 C 222.427 153.040,222.749 152.566,222.870 152.366 C 222.991 152.166,223.535 151.282,224.079 150.403 C 224.623 149.524,225.316 148.387,225.618 147.877 C 225.921 147.366,226.712 146.092,227.378 145.046 C 228.043 143.999,228.686 142.971,228.807 142.760 C 228.928 142.549,229.250 142.067,229.522 141.688 C 229.794 141.309,230.016 140.953,230.016 140.898 C 230.016 140.843,230.684 139.765,231.501 138.502 C 233.491 135.424,233.393 135.579,234.579 133.649 C 235.154 132.714,235.775 131.675,235.960 131.340 C 236.145 131.005,236.746 130.038,237.296 129.192 C 238.835 126.821,239.134 126.351,239.253 126.113 C 239.313 125.992,239.855 125.151,240.456 124.244 C 241.057 123.337,241.651 122.424,241.775 122.215 C 242.234 121.443,243.772 119.016,245.121 116.934 C 245.884 115.756,246.509 114.735,246.509 114.665 C 246.509 114.596,246.750 114.224,247.044 113.838 C 247.338 113.453,247.684 112.890,247.813 112.588 C 247.942 112.287,248.136 111.891,248.244 111.710 C 249.642 109.360,249.768 102.364,249.271 54.964 C 249.164 44.783,249.192 42.904,249.458 42.540 C 250.248 41.460,337.323 41.980,340.737 43.085 C 342.303 43.592,345.437 45.000,345.904 45.407 C 346.086 45.565,346.400 45.729,346.604 45.772 C 347.246 45.907,351.711 49.960,352.844 51.436 C 355.455 54.838,357.339 58.301,357.339 59.696 C 357.339 59.987,357.450 60.503,357.586 60.843 C 358.255 62.519,358.288 65.681,358.417 141.217 L 358.549 217.893 359.195 218.567 L 359.840 219.241 378.630 219.241 L 397.419 219.241 398.381 218.279 L 399.343 217.317 399.267 139.610 C 399.198 69.285,399.157 61.620,398.831 58.933 C 398.457 55.854,397.975 52.908,397.750 52.336 C 397.508 51.719,397.106 50.030,396.918 48.844 C 396.816 48.193,396.626 47.555,396.497 47.426 C 396.367 47.296,396.262 46.920,396.262 46.588 C 396.262 46.257,396.174 45.931,396.066 45.864 C 395.959 45.798,395.806 45.471,395.726 45.137 C 395.184 42.862,391.954 35.790,390.225 33.095 C 385.054 25.033,382.011 21.402,376.290 16.471 C 374.123 14.602,368.438 10.555,367.981 10.555 C 367.892 10.555,367.663 10.420,367.472 10.254 C 366.401 9.323,358.176 5.263,356.744 4.957 C 356.355 4.875,355.540 4.566,354.930 4.273 C 354.321 3.979,353.668 3.738,353.478 3.738 C 353.288 3.738,352.916 3.621,352.652 3.478 C 352.388 3.335,351.776 3.141,351.292 3.047 C 349.244 2.649,347.966 2.354,347.554 2.185 C 347.312 2.085,346.570 1.937,345.904 1.856 C 345.239 1.775,344.596 1.646,344.475 1.569 C 343.285 0.813,342.726 0.806,275.381 0.731 L 209.585 0.658 209.114 1.153 C 208.260 2.054,208.246 2.378,208.239 22.169 C 208.233 39.365,208.194 41.621,207.909 41.244 C 207.732 41.010,207.588 40.663,207.589 40.475 C 207.591 40.286,207.057 39.043,206.402 37.713 C 205.748 36.383,205.152 35.146,205.078 34.964 C 205.004 34.783,204.771 34.366,204.561 34.038 C 203.886 32.985,201.873 29.811,201.591 29.358 C 201.442 29.116,201.062 28.572,200.747 28.148 C 200.432 27.724,200.135 27.264,200.087 27.125 C 199.751 26.147,191.554 17.408,189.939 16.306 C 189.667 16.120,188.859 15.443,188.143 14.801 C 187.427 14.159,186.748 13.634,186.635 13.634 C 186.522 13.634,186.055 13.337,185.596 12.974 C 185.138 12.611,184.687 12.314,184.593 12.314 C 184.499 12.314,184.257 12.165,184.055 11.983 C 182.572 10.641,172.222 5.275,170.422 4.915 C 170.055 4.841,169.701 4.695,169.636 4.590 C 169.571 4.484,169.365 4.398,169.179 4.398 C 168.993 4.398,168.529 4.266,168.148 4.104 C 166.478 3.397,165.525 3.114,163.167 2.628 C 162.501 2.491,161.809 2.321,161.627 2.250 C 161.446 2.179,160.704 1.999,159.978 1.848 C 159.252 1.698,157.916 1.412,157.009 1.213 C 154.112 0.576,127.965 0.395,80.264 0.681 M152.831 42.598 C 153.617 42.723,154.557 42.949,154.920 43.100 C 155.283 43.251,155.778 43.456,156.020 43.556 C 156.262 43.655,156.924 43.940,157.492 44.188 C 158.060 44.437,158.595 44.640,158.682 44.640 C 158.768 44.640,159.568 45.135,160.460 45.739 C 161.351 46.344,162.142 46.839,162.218 46.839 C 163.658 46.839,169.903 55.355,170.345 57.922 C 170.409 58.297,170.610 58.997,170.791 59.479 C 171.077 60.241,171.130 65.714,171.200 102.029 C 171.244 124.951,171.344 144.546,171.423 145.574 C 171.615 148.093,171.126 158.409,170.767 159.413 C 170.613 159.844,170.362 160.594,170.210 161.078 C 169.796 162.393,169.409 163.286,168.278 165.535 C 167.362 167.356,166.725 168.294,165.085 170.231 C 164.322 171.131,161.326 173.527,159.983 174.311 C 158.861 174.965,156.722 175.921,156.378 175.921 C 156.169 175.921,155.881 176.037,155.739 176.179 C 155.597 176.322,155.008 176.515,154.431 176.609 C 153.853 176.703,152.886 176.878,152.281 176.997 C 150.744 177.300,62.692 177.300,61.352 176.997 C 60.808 176.874,59.918 176.692,59.373 176.592 C 54.613 175.723,48.558 170.893,44.977 165.109 C 44.658 164.595,43.742 162.724,43.487 162.067 C 43.370 161.765,43.143 161.220,42.984 160.858 C 42.824 160.495,42.644 159.901,42.583 159.538 C 42.522 159.175,42.365 158.433,42.232 157.889 C 41.883 156.451,42.010 61.764,42.362 61.331 C 42.501 61.161,42.660 60.577,42.716 60.033 C 42.807 59.149,42.984 58.525,43.559 57.064 C 43.655 56.822,43.798 56.393,43.877 56.111 C 44.020 55.604,44.837 54.157,45.943 52.454 C 48.073 49.172,55.886 43.321,58.137 43.321 C 58.303 43.321,58.795 43.172,59.229 42.991 C 59.664 42.809,60.492 42.654,61.070 42.645 C 61.649 42.637,62.320 42.545,62.562 42.440 C 63.209 42.162,151.052 42.315,152.831 42.598 M295.602 80.594 C 295.605 81.078,295.650 81.250,295.703 80.976 C 295.755 80.702,295.753 80.307,295.698 80.096 C 295.643 79.886,295.600 80.110,295.602 80.594 " stroke="none" fill="#040404" fill-rule="evenodd"></path></g></svg> 