<svg width="36" height="34" viewBox="0 0 36 34" fill="none" xmlns="http://www.w3.org/2000/svg">
<path d="M0 5C0 2.23858 2.23858 0 5 0H30.84C33.6014 0 35.84 2.23858 35.84 5V28.4361C35.84 31.1975 33.6014 33.4361 30.84 33.4361H5C2.23858 33.4361 0 31.1975 0 28.4361V5Z" fill="#1C3182"/>
<path d="M27.7719 25.1317H20.6694C20.6694 25.1317 21.5436 22.4 15.4246 22.0722C9.30554 21.7444 7.33871 20.8703 7.33871 20.8703C7.33871 20.8703 4.27303 19.8282 3.18651 18.2478C1.98457 16.4995 3.07724 13.7678 3.07724 13.7678H10.1797C10.1797 13.7678 9.63335 15.5161 11.8187 16.0625C14.0041 16.6088 16.408 16.9366 16.408 16.9366L22.4177 17.8107C22.4177 17.8107 25.368 18.3571 26.6792 19.559C27.4561 20.2712 27.8277 20.8355 28.0997 21.8537C28.4317 23.0966 27.7719 25.1317 27.7719 25.1317Z" fill="white"/>
<path d="M30.3766 16.6087H23.1649L24.1484 13.7678H10.1797C10.1797 13.7678 11.9103 8.08583 18.0293 8.08582H33.2176L30.3766 16.6087Z" fill="#FCA72A"/>
</svg>
